<svg width="130" height="149" viewBox="0 0 130 149" fill="none" xmlns="http://www.w3.org/2000/svg">
<g clip-path="url(#clip0_93_16390)">
<rect x="9" y="21" width="112" height="107" rx="16" fill="#788199" fill-opacity="0.21"/>
<g filter="url(#filter0_f_93_16390)">
<circle cx="65" cy="74" r="21" fill="#7687B5"/>
</g>
<path d="M55.0985 51.5714H68.2439L54.5981 92.0026C54.4579 92.4182 54.1909 92.7793 53.8347 93.0351C53.4784 93.2909 53.0509 93.4285 52.6123 93.4284H42.3823C42.05 93.4284 41.7226 93.3493 41.4269 93.1976C41.1313 93.046 40.876 92.8262 40.6821 92.5564C40.4882 92.2866 40.3614 91.9744 40.3121 91.6458C40.2629 91.3172 40.2927 90.9816 40.3991 90.6669L53.1128 52.997C53.253 52.5814 53.5201 52.2204 53.8763 51.9645C54.2325 51.7087 54.66 51.571 55.0985 51.5708V51.5714Z" fill="url(#paint0_linear_93_16390)"/>
<path d="M74.2001 78.6899H53.3549C53.161 78.6896 52.9716 78.7476 52.8112 78.8565C52.6509 78.9654 52.5271 79.1201 52.4559 79.3004C52.3848 79.4808 52.3697 79.6783 52.4125 79.8674C52.4553 80.0564 52.5542 80.2282 52.6961 80.3602L66.0906 92.8625C66.4808 93.226 66.9941 93.4282 67.5274 93.4285H79.3308L74.2001 78.6899Z" fill="#5C73AE"/>
<path d="M55.0972 51.5714C54.6538 51.5696 54.2214 51.7096 53.8633 51.9711C53.5052 52.2326 53.2401 52.6018 53.1069 53.0247L40.4136 90.6326C40.3004 90.9485 40.2649 91.2871 40.3101 91.6197C40.3553 91.9522 40.4799 92.269 40.6735 92.5432C40.867 92.8174 41.1236 93.041 41.4218 93.1951C41.72 93.3492 42.0508 93.4292 42.3865 93.4284H52.8807C53.2716 93.3586 53.6369 93.1863 53.9394 92.9291C54.2418 92.6719 54.4706 92.339 54.6022 91.9644L57.1334 84.5044L66.1753 92.9376C66.5542 93.251 67.0294 93.4243 67.521 93.4284H79.2806L74.1229 78.6899L59.0881 78.6934L68.29 51.5714H55.0972Z" fill="url(#paint1_linear_93_16390)"/>
<path d="M71.8871 52.995C71.7469 52.5801 71.4802 52.2196 71.1245 51.9642C70.7687 51.7089 70.3418 51.5715 69.9039 51.5714H55.2539C55.6918 51.5716 56.1186 51.709 56.4743 51.9643C56.83 52.2197 57.0966 52.5802 57.2368 52.995L69.9508 90.6665C70.0572 90.9814 70.0871 91.317 70.038 91.6457C69.9889 91.9744 69.8622 92.2867 69.6684 92.5567C69.4746 92.8267 69.2193 93.0467 68.9236 93.1984C68.6278 93.3501 68.3002 93.4291 67.9679 93.429H82.6185C82.9508 93.4288 83.2782 93.3495 83.5737 93.1977C83.8692 93.0459 84.1244 92.826 84.3181 92.5561C84.5118 92.2861 84.6385 91.974 84.6877 91.6455C84.7369 91.3169 84.7072 90.9813 84.6011 90.6665L71.8871 52.995Z" fill="#C7D7FF"/>
</g>
<rect x="9.5" y="21.5" width="111" height="106" rx="15.5" stroke="black"/>
<rect x="9.5" y="21.5" width="111" height="106" rx="15.5" stroke="url(#paint2_linear_93_16390)"/>
<defs>
<filter id="filter0_f_93_16390" x="1.9" y="10.9" width="126.2" height="126.2" filterUnits="userSpaceOnUse" color-interpolation-filters="sRGB">
<feFlood flood-opacity="0" result="BackgroundImageFix"/>
<feBlend mode="normal" in="SourceGraphic" in2="BackgroundImageFix" result="shape"/>
<feGaussianBlur stdDeviation="21.05" result="effect1_foregroundBlur_93_16390"/>
</filter>
<linearGradient id="paint0_linear_93_16390" x1="59.8898" y1="54.6732" x2="46.2382" y2="95.0029" gradientUnits="userSpaceOnUse">
<stop stop-color="#114A8B"/>
<stop offset="1" stop-color="#0669BC"/>
</linearGradient>
<linearGradient id="paint1_linear_93_16390" x1="59.7858" y1="51.5714" x2="59.7858" y2="93.4284" gradientUnits="userSpaceOnUse">
<stop stop-color="#C7D7FF"/>
<stop offset="1" stop-color="#788199"/>
</linearGradient>
<linearGradient id="paint2_linear_93_16390" x1="121" y1="74.5" x2="9" y2="74.5" gradientUnits="userSpaceOnUse">
<stop stop-color="#7687B5"/>
<stop offset="1" stop-color="#333B4F"/>
</linearGradient>
<clipPath id="clip0_93_16390">
<rect x="9" y="21" width="112" height="107" rx="16" fill="white"/>
</clipPath>
</defs>
</svg>
