<svg width="130" height="149" viewBox="0 0 130 149" fill="none" xmlns="http://www.w3.org/2000/svg">
<g clip-path="url(#clip0_93_16360)">
<rect x="9" y="21" width="112" height="107" rx="16" fill="#788199" fill-opacity="0.21"/>
<g opacity="0.2" filter="url(#filter0_f_93_16360)">
<circle cx="65" cy="74" r="21" fill="#7687B5"/>
</g>
<g clip-path="url(#clip1_93_16360)">
<path fill-rule="evenodd" clip-rule="evenodd" d="M46.9727 61.665L56.5447 52V96.9374L46.9727 87.3849V61.665Z" fill="url(#paint0_linear_93_16360)"/>
<path fill-rule="evenodd" clip-rule="evenodd" d="M83.9587 61.7512L74.2676 52L74.4639 96.9374L84.0246 87.3837L83.9587 61.7512Z" fill="#C5CDE3"/>
<path fill-rule="evenodd" clip-rule="evenodd" d="M56.5439 52.0613L81.432 90.0363L74.4673 96.9999L49.5664 59.1091L56.5439 52.0613Z" fill="url(#paint1_linear_93_16360)"/>
<path fill-rule="evenodd" clip-rule="evenodd" d="M56.5448 69.5817L56.5307 71.0738L48.8867 59.7605L49.5948 59.0363L56.5448 69.5817Z" fill="black" fill-opacity="0.129"/>
</g>
</g>
<rect x="9.5" y="21.5" width="111" height="106" rx="15.5" stroke="black"/>
<rect x="9.5" y="21.5" width="111" height="106" rx="15.5" stroke="url(#paint2_linear_93_16360)"/>
<defs>
<filter id="filter0_f_93_16360" x="1.9" y="10.9" width="126.2" height="126.2" filterUnits="userSpaceOnUse" color-interpolation-filters="sRGB">
<feFlood flood-opacity="0" result="BackgroundImageFix"/>
<feBlend mode="normal" in="SourceGraphic" in2="BackgroundImageFix" result="shape"/>
<feGaussianBlur stdDeviation="21.05" result="effect1_foregroundBlur_93_16360"/>
</filter>
<linearGradient id="paint0_linear_93_16360" x1="51.7587" y1="96.9374" x2="51.7587" y2="52" gradientUnits="userSpaceOnUse">
<stop stop-color="#E2E8F8"/>
<stop offset="1" stop-color="#858992"/>
</linearGradient>
<linearGradient id="paint1_linear_93_16360" x1="65.4992" y1="52.0613" x2="65.4992" y2="96.9999" gradientUnits="userSpaceOnUse">
<stop stop-color="#E6EDFF"/>
<stop offset="1" stop-color="#8A8E99"/>
</linearGradient>
<linearGradient id="paint2_linear_93_16360" x1="121" y1="74.5" x2="9" y2="74.5" gradientUnits="userSpaceOnUse">
<stop stop-color="#7687B5"/>
<stop offset="1" stop-color="#333B4F"/>
</linearGradient>
<clipPath id="clip0_93_16360">
<rect x="9" y="21" width="112" height="107" rx="16" fill="white"/>
</clipPath>
<clipPath id="clip1_93_16360">
<rect width="45" height="45" fill="white" transform="translate(43 52)"/>
</clipPath>
</defs>
</svg>
