<svg width="130" height="149" viewBox="0 0 130 149" fill="none" xmlns="http://www.w3.org/2000/svg">
<g clip-path="url(#clip0_93_16309)">
<rect x="9" y="21" width="112" height="107" rx="16" fill="#788199" fill-opacity="0.21"/>
<g opacity="0.2" filter="url(#filter0_f_93_16309)">
<circle cx="65" cy="74" r="21" fill="#7687B5"/>
</g>
<g clip-path="url(#clip1_93_16309)">
<path d="M76.0979 52.1223C76.0316 52.1284 75.9656 52.1369 75.8999 52.1476C75.7911 52.1445 75.6821 52.1476 75.5737 52.1571C75.4571 52.1751 75.3418 52.2003 75.2284 52.2327C75.1634 52.2389 75.0985 52.2473 75.034 52.258C74.9352 52.2979 74.8387 52.3433 74.745 52.3941C74.6872 52.419 74.6302 52.4458 74.5742 52.4746C74.3413 52.5984 74.1269 52.7544 73.9375 52.9379L58.9912 69.4635L50.2654 62.3127L49.5018 61.657C49.4101 61.5942 49.3129 61.5398 49.2114 61.4943C49.1509 61.4553 49.0881 61.4201 49.0233 61.3888C48.9543 61.3577 48.8834 61.331 48.811 61.309C48.7368 61.2864 48.6611 61.2688 48.5846 61.2563C48.5256 61.2513 48.4665 61.2493 48.4074 61.2503C48.3481 61.2385 48.2883 61.2299 48.2281 61.2243C48.1967 61.2304 48.1655 61.2375 48.1346 61.2454C48.1095 61.2445 48.0844 61.2441 48.0593 61.2443C48.0326 61.2507 48.006 61.2577 47.9795 61.2654C47.9228 61.2634 47.866 61.2641 47.8094 61.2675C47.7237 61.2864 47.6403 61.3147 47.5608 61.3519L44.1528 62.7817C43.9637 62.8637 43.7895 62.9766 43.6374 63.1157C43.6116 63.1357 43.5864 63.1565 43.5618 63.1779C43.5334 63.2134 43.5065 63.25 43.4809 63.2876C43.3955 63.3827 43.3201 63.4864 43.2559 63.597C43.2216 63.651 43.1903 63.7069 43.1621 63.7643C43.1506 63.7962 43.14 63.8285 43.1304 63.861C43.0939 63.9648 43.0666 64.0716 43.0489 64.1802C43.0294 64.2398 43.013 64.3003 43 64.3616V84.6397C43.0131 84.7006 43.0294 84.7606 43.0489 84.8197C43.0665 84.9291 43.0937 85.0366 43.1304 85.1411C43.1401 85.1731 43.1506 85.2049 43.1621 85.2363C43.1904 85.2939 43.2218 85.3499 43.2563 85.404C43.3203 85.5145 43.3954 85.618 43.4806 85.7131C43.5061 85.7506 43.5331 85.7872 43.5614 85.8227C43.5862 85.8443 43.6115 85.8652 43.6374 85.8853C43.7895 86.0243 43.9637 86.137 44.1528 86.219L47.5608 87.6484C47.7533 87.725 47.9572 87.769 48.1641 87.7785C48.2239 87.7804 48.2837 87.7792 48.3434 87.775C48.4947 87.77 48.6449 87.7466 48.7906 87.7054C48.8513 87.6905 48.9111 87.6724 48.9699 87.6512C49.1629 87.579 49.3427 87.4753 49.5018 87.3443L50.2654 86.6879L58.9912 79.5372L73.9375 96.0627C74.1351 96.2573 74.3605 96.4216 74.6062 96.5503C74.6758 96.5801 74.7467 96.6071 74.8185 96.6312L74.8206 96.6319C74.9721 96.7064 75.13 96.7671 75.2924 96.8133L75.3775 96.8179C75.5586 96.846 75.7421 96.8564 75.9252 96.8488C76.041 96.8576 76.1573 96.8593 76.2733 96.8537C76.5718 96.8179 76.8626 96.7345 77.1346 96.6066L86.4064 92.1488C86.4748 92.1156 86.5419 92.0797 86.6075 92.0412L86.6672 92.0039C86.7129 91.9759 86.7578 91.9466 86.8019 91.916L86.8655 91.8686C86.905 91.8393 86.9436 91.8091 86.9815 91.7779C87.0058 91.758 87.0297 91.7377 87.0532 91.717C87.0864 91.6873 87.1189 91.6569 87.1506 91.6256C87.1733 91.6037 87.1955 91.5815 87.2174 91.5588C87.2516 91.5229 87.2847 91.4861 87.3169 91.4484L87.3675 91.3901C87.3998 91.3497 87.431 91.3084 87.4611 91.2663L87.511 91.1985C87.5521 91.1379 87.5908 91.0758 87.627 91.0122L87.6586 90.9524C87.6833 90.9078 87.7067 90.8626 87.7289 90.8167C87.7427 90.7869 87.756 90.7569 87.7687 90.7267C87.7876 90.6827 87.8054 90.6383 87.8221 90.5934L87.8488 90.5179C87.8635 90.4752 87.8771 90.4322 87.8896 90.3888C87.8999 90.3534 87.9095 90.3178 87.9184 90.282C87.9277 90.2421 87.9362 90.202 87.9437 90.1617C87.9505 90.1297 87.9567 90.0976 87.9624 90.0654C87.9703 90.0151 87.9769 89.9646 87.9821 89.9139L87.9898 89.8506L87.9905 89.8425C87.9968 89.7661 88 89.6896 88 89.6129V59.3884C88 59.3116 87.9968 59.2347 87.9905 59.1581L87.9842 59.1026C87.9784 59.0428 87.9706 58.9833 87.961 58.924L87.949 58.8642C87.9394 58.812 87.9282 58.7601 87.9156 58.7085C87.9076 58.6769 87.8991 58.6455 87.89 58.6143C87.8787 58.5753 87.8667 58.5367 87.8537 58.4983C87.8425 58.4635 87.8305 58.4289 87.8179 58.3945C87.8022 58.3537 87.7855 58.3133 87.768 58.2733C87.7567 58.2458 87.745 58.2185 87.7328 58.1913C87.7097 58.1433 87.6852 58.0959 87.6593 58.0493L87.6231 57.9808C87.5866 57.9174 87.5477 57.8555 87.5064 57.7951L87.4691 57.7459C87.4379 57.7016 87.4055 57.6582 87.3718 57.6158C87.3502 57.5901 87.3281 57.5648 87.3057 57.5399C87.2776 57.5071 87.2487 57.475 87.2192 57.4436C87.1969 57.4206 87.1743 57.3979 87.1513 57.3757C87.1193 57.3442 87.0864 57.3135 87.0529 57.2836C87.0296 57.2628 87.0059 57.2424 86.9819 57.2224C86.944 57.1913 86.9053 57.1612 86.8659 57.1321L86.8019 57.0846C86.7578 57.054 86.7129 57.0247 86.6672 56.9967L86.6075 56.9595C86.5419 56.9209 86.4748 56.885 86.4064 56.8519L77.1346 52.3937C76.8742 52.2694 76.5963 52.186 76.3105 52.1462C76.2705 52.1456 76.2304 52.1458 76.1903 52.1469C76.1596 52.1382 76.1288 52.13 76.0979 52.1223ZM76.75 64.9754V84.0252L65.1298 74.5007L76.75 64.9754ZM48.625 68.0762L54.4353 74.5007L48.625 80.9248V68.0769V68.0762Z" fill="url(#paint0_radial_93_16309)"/>
</g>
</g>
<rect x="9.5" y="21.5" width="111" height="106" rx="15.5" stroke="black"/>
<rect x="9.5" y="21.5" width="111" height="106" rx="15.5" stroke="url(#paint1_linear_93_16309)"/>
<defs>
<filter id="filter0_f_93_16309" x="1.9" y="10.9" width="126.2" height="126.2" filterUnits="userSpaceOnUse" color-interpolation-filters="sRGB">
<feFlood flood-opacity="0" result="BackgroundImageFix"/>
<feBlend mode="normal" in="SourceGraphic" in2="BackgroundImageFix" result="shape"/>
<feGaussianBlur stdDeviation="21.05" result="effect1_foregroundBlur_93_16309"/>
</filter>
<radialGradient id="paint0_radial_93_16309" cx="0" cy="0" r="1" gradientUnits="userSpaceOnUse" gradientTransform="translate(65.5 74.4896) rotate(89.7321) scale(24.3721 24.5164)">
<stop stop-color="#C7D7FF"/>
<stop offset="1" stop-color="#788199"/>
</radialGradient>
<linearGradient id="paint1_linear_93_16309" x1="121" y1="74.5" x2="9" y2="74.5" gradientUnits="userSpaceOnUse">
<stop stop-color="#7687B5"/>
<stop offset="1" stop-color="#333B4F"/>
</linearGradient>
<clipPath id="clip0_93_16309">
<rect x="9" y="21" width="112" height="107" rx="16" fill="white"/>
</clipPath>
<clipPath id="clip1_93_16309">
<rect width="45" height="45" fill="white" transform="translate(43 52)"/>
</clipPath>
</defs>
</svg>
