<svg width="1440" height="361" viewBox="0 0 1440 361" fill="none" xmlns="http://www.w3.org/2000/svg">
<mask id="path-1-inside-1_97_16605" fill="white">
<path d="M0 0H1440V361H0V0Z"/>
</mask>
<path d="M0 0H1440V361H0V0Z" fill="#050506"/>
<path d="M0 1H1440V-1H0V1Z" fill="#333B4F" mask="url(#path-1-inside-1_97_16605)"/>
<path d="M928.934 260.306V203.865H938.933V260.306H928.934ZM933.934 193.705C932.082 193.705 930.508 193.047 929.212 191.73C927.916 190.413 927.268 188.814 927.268 186.932C927.268 184.988 927.916 183.389 929.212 182.135C930.508 180.818 932.082 180.159 933.934 180.159C935.847 180.159 937.421 180.818 938.655 182.135C939.952 183.389 940.6 184.988 940.6 186.932C940.6 188.814 939.952 190.413 938.655 191.73C937.421 193.047 935.847 193.705 933.934 193.705Z" fill="#C5CDE3"/>
<path d="M882.421 261.058C877.36 261.058 872.73 259.773 868.533 257.201C864.336 254.567 860.972 251.056 858.442 246.666C855.973 242.276 854.738 237.416 854.738 232.085C854.738 226.754 855.973 221.894 858.442 217.504C860.972 213.114 864.336 209.634 868.533 207.063C872.73 204.429 877.36 203.112 882.421 203.112C886.248 203.112 889.828 203.833 893.161 205.275C896.556 206.718 899.487 208.725 901.956 211.296V203.864H911.215V260.306H901.956V252.874C899.487 255.383 896.556 257.39 893.161 258.895C889.828 260.337 886.248 261.058 882.421 261.058ZM883.717 251.839C887.235 251.839 890.414 250.961 893.253 249.206C896.154 247.387 898.438 245.004 900.105 242.056C901.833 239.046 902.697 235.722 902.697 232.085C902.697 228.448 901.833 225.155 900.105 222.208C898.438 219.198 896.154 216.815 893.253 215.059C890.414 213.24 887.235 212.331 883.717 212.331C880.199 212.331 876.989 213.24 874.088 215.059C871.249 216.815 868.965 219.198 867.237 222.208C865.571 225.155 864.737 228.448 864.737 232.085C864.737 235.722 865.571 239.046 867.237 242.056C868.965 245.004 871.249 247.387 874.088 249.206C876.989 250.961 880.199 251.839 883.717 251.839Z" fill="#C5CDE3"/>
<path d="M846.673 261.435C844.636 261.435 842.908 260.745 841.488 259.365C840.13 257.923 839.451 256.167 839.451 254.098C839.451 252.028 840.13 250.304 841.488 248.924C842.908 247.481 844.636 246.76 846.673 246.76C848.771 246.76 850.5 247.481 851.857 248.924C853.215 250.304 853.894 252.028 853.894 254.098C853.894 256.167 853.215 257.923 851.857 259.365C850.5 260.745 848.771 261.435 846.673 261.435Z" fill="#C5CDE3"/>
<path d="M817.953 260.306L794.992 229.263L813.88 203.865H829.711L811.195 228.04L835.266 260.306H817.953ZM781.197 260.306V170H795.733V260.306H781.197Z" fill="#C5CDE3"/>
<path d="M760.519 262.001C757.001 262.001 753.39 261.405 749.687 260.213C745.984 258.959 743.021 257.203 740.799 254.945L744.502 240.647C746.292 243.281 748.699 245.539 751.724 247.42C754.81 249.239 757.989 250.148 761.26 250.148C763.729 250.148 765.519 249.646 766.63 248.643C767.803 247.577 768.389 246.291 768.389 244.786C768.389 243.093 767.803 241.87 766.63 241.117C765.457 240.302 764.284 239.675 763.112 239.236L755.427 236.32C753.822 235.63 751.94 234.721 749.78 233.592C747.619 232.4 745.737 230.738 744.132 228.606C742.589 226.411 741.817 223.558 741.817 220.046C741.817 216.848 742.589 213.9 744.132 211.203C745.675 208.507 747.897 206.343 750.798 204.713C753.761 203.019 757.31 202.173 761.445 202.173C765.149 202.173 768.667 202.831 772 204.148C775.394 205.403 777.956 206.97 779.684 208.852L776.259 222.774C774.283 220.015 771.907 217.882 769.13 216.377C766.352 214.809 763.667 214.026 761.075 214.026C758.914 214.026 757.31 214.527 756.26 215.531C755.211 216.471 754.686 217.6 754.686 218.917C754.686 219.921 755.057 220.861 755.797 221.739C756.538 222.617 757.742 223.37 759.408 223.997L766.63 226.819C768.543 227.509 770.642 228.481 772.926 229.735C775.209 230.927 777.154 232.62 778.758 234.815C780.425 237.01 781.258 240.02 781.258 243.845C781.258 249.239 779.314 253.628 775.425 257.015C771.599 260.339 766.63 262.001 760.519 262.001Z" fill="#C5CDE3"/>
<path d="M709.587 261.624C704.526 261.624 699.897 260.307 695.699 257.673C691.502 254.976 688.138 251.401 685.608 246.949C683.139 242.434 681.904 237.479 681.904 232.086C681.904 226.693 683.139 221.77 685.608 217.317C688.138 212.802 691.502 209.227 695.699 206.593C699.897 203.897 704.526 202.548 709.587 202.548C713.229 202.548 716.593 203.207 719.679 204.524C722.765 205.841 725.388 207.691 727.548 210.074V203.865H740.232V260.307H727.548V254.098C725.388 256.418 722.765 258.268 719.679 259.648C716.593 260.965 713.229 261.624 709.587 261.624ZM711.346 248.548C714.309 248.548 716.963 247.795 719.308 246.29C721.716 244.785 723.629 242.81 725.049 240.364C726.468 237.855 727.178 235.096 727.178 232.086C727.178 229.076 726.468 226.348 725.049 223.902C723.629 221.393 721.716 219.387 719.308 217.882C716.963 216.376 714.34 215.624 711.439 215.624C708.476 215.624 705.791 216.376 703.384 217.882C701.038 219.387 699.156 221.393 697.736 223.902C696.317 226.348 695.607 229.076 695.607 232.086C695.607 235.096 696.317 237.855 697.736 240.364C699.156 242.81 701.038 244.785 703.384 246.29C705.791 247.795 708.445 248.548 711.346 248.548Z" fill="#C5CDE3"/>
<path d="M638.688 189.473V175.645H695.812V189.473H674.981V260.306H659.519V189.473H638.688Z" fill="#C5CDE3"/>
<path d="M596.987 261.059C591.926 261.059 587.297 259.773 583.1 257.202C578.903 254.568 575.539 251.056 573.008 246.666C570.539 242.276 569.305 237.416 569.305 232.085C569.305 226.755 570.539 221.895 573.008 217.505C575.539 213.115 578.903 209.634 583.1 207.063C587.297 204.429 591.926 203.112 596.987 203.112C600.629 203.112 604.055 203.771 607.264 205.088C610.474 206.405 613.313 208.223 615.782 210.544V170H625.781V260.306H616.523V252.875C614.054 255.383 611.122 257.39 607.727 258.895C604.394 260.337 600.814 261.059 596.987 261.059ZM598.284 251.84C601.802 251.84 604.98 250.962 607.82 249.206C610.721 247.387 613.004 245.004 614.671 242.057C616.399 239.047 617.263 235.723 617.263 232.085C617.263 228.448 616.399 225.156 614.671 222.208C613.004 219.198 610.721 216.815 607.82 215.059C604.98 213.24 601.802 212.331 598.284 212.331C594.765 212.331 591.556 213.24 588.655 215.059C585.816 216.815 583.532 219.198 581.804 222.208C580.137 225.156 579.304 228.448 579.304 232.085C579.304 235.723 580.137 239.047 581.804 242.057C583.532 245.004 585.816 247.387 588.655 249.206C591.556 250.962 594.765 251.84 598.284 251.84Z" fill="#C5CDE3"/>
<path d="M526.683 261.058C521.621 261.058 516.992 259.773 512.795 257.201C508.598 254.567 505.234 251.056 502.703 246.666C500.234 242.276 499 237.416 499 232.085C499 226.754 500.234 221.894 502.703 217.504C505.234 213.114 508.598 209.634 512.795 207.063C516.992 204.429 521.621 203.112 526.683 203.112C530.51 203.112 534.089 203.833 537.422 205.275C540.817 206.718 543.749 208.725 546.218 211.296V203.864H555.476V260.306H546.218V252.874C543.749 255.383 540.817 257.39 537.422 258.895C534.089 260.337 530.51 261.058 526.683 261.058ZM527.979 251.839C531.497 251.839 534.676 250.961 537.515 249.206C540.416 247.387 542.7 245.004 544.366 242.056C546.095 239.046 546.959 235.722 546.959 232.085C546.959 228.448 546.095 225.155 544.366 222.208C542.7 219.198 540.416 216.815 537.515 215.059C534.676 213.24 531.497 212.331 527.979 212.331C524.461 212.331 521.251 213.24 518.35 215.059C515.511 216.815 513.227 219.198 511.499 222.208C509.832 225.155 508.999 228.448 508.999 232.085C508.999 235.722 509.832 239.046 511.499 242.056C513.227 245.004 515.511 247.387 518.35 249.206C521.251 250.961 524.461 251.839 527.979 251.839Z" fill="#C5CDE3"/>
<path d="M441.456 78.06V92H439.636V85.68H432.536V92H430.716V78.06H432.536V84.18H439.636V78.06H441.456ZM449.343 92.18C448.317 92.18 447.383 91.9467 446.543 91.48C445.717 91.0133 445.063 90.3533 444.583 89.5C444.117 88.6333 443.883 87.6333 443.883 86.5C443.883 85.38 444.123 84.3933 444.603 83.54C445.097 82.6733 445.763 82.0133 446.603 81.56C447.443 81.0933 448.383 80.86 449.423 80.86C450.463 80.86 451.403 81.0933 452.243 81.56C453.083 82.0133 453.743 82.6667 454.223 83.52C454.717 84.3733 454.963 85.3667 454.963 86.5C454.963 87.6333 454.71 88.6333 454.203 89.5C453.71 90.3533 453.037 91.0133 452.183 91.48C451.33 91.9467 450.383 92.18 449.343 92.18ZM449.343 90.58C449.997 90.58 450.61 90.4267 451.183 90.12C451.757 89.8133 452.217 89.3533 452.563 88.74C452.923 88.1267 453.103 87.38 453.103 86.5C453.103 85.62 452.93 84.8733 452.583 84.26C452.237 83.6467 451.783 83.1933 451.223 82.9C450.663 82.5933 450.057 82.44 449.403 82.44C448.737 82.44 448.123 82.5933 447.563 82.9C447.017 83.1933 446.577 83.6467 446.243 84.26C445.91 84.8733 445.743 85.62 445.743 86.5C445.743 87.3933 445.903 88.1467 446.223 88.76C446.557 89.3733 446.997 89.8333 447.543 90.14C448.09 90.4333 448.69 90.58 449.343 90.58ZM470.536 80.84C471.39 80.84 472.15 81.02 472.816 81.38C473.483 81.7267 474.01 82.2533 474.396 82.96C474.783 83.6667 474.976 84.5267 474.976 85.54V92H473.176V85.8C473.176 84.7067 472.903 83.8733 472.356 83.3C471.823 82.7133 471.096 82.42 470.176 82.42C469.23 82.42 468.476 82.7267 467.916 83.34C467.356 83.94 467.076 84.8133 467.076 85.96V92H465.276V85.8C465.276 84.7067 465.003 83.8733 464.456 83.3C463.923 82.7133 463.196 82.42 462.276 82.42C461.33 82.42 460.576 82.7267 460.016 83.34C459.456 83.94 459.176 84.8133 459.176 85.96V92H457.356V81.04H459.176V82.62C459.536 82.0467 460.016 81.6067 460.616 81.3C461.23 80.9933 461.903 80.84 462.636 80.84C463.556 80.84 464.37 81.0467 465.076 81.46C465.783 81.8733 466.31 82.48 466.656 83.28C466.963 82.5067 467.47 81.9067 468.176 81.48C468.883 81.0533 469.67 80.84 470.536 80.84ZM487.962 86.1C487.962 86.4467 487.942 86.8133 487.902 87.2H479.142C479.209 88.28 479.575 89.1267 480.242 89.74C480.922 90.34 481.742 90.64 482.702 90.64C483.489 90.64 484.142 90.46 484.662 90.1C485.195 89.7267 485.569 89.2333 485.782 88.62H487.742C487.449 89.6733 486.862 90.5333 485.982 91.2C485.102 91.8533 484.009 92.18 482.702 92.18C481.662 92.18 480.729 91.9467 479.902 91.48C479.089 91.0133 478.449 90.3533 477.982 89.5C477.515 88.6333 477.282 87.6333 477.282 86.5C477.282 85.3667 477.509 84.3733 477.962 83.52C478.415 82.6667 479.049 82.0133 479.862 81.56C480.689 81.0933 481.635 80.86 482.702 80.86C483.742 80.86 484.662 81.0867 485.462 81.54C486.262 81.9933 486.875 82.62 487.302 83.42C487.742 84.2067 487.962 85.1 487.962 86.1ZM486.082 85.72C486.082 85.0267 485.929 84.4333 485.622 83.94C485.315 83.4333 484.895 83.0533 484.362 82.8C483.842 82.5333 483.262 82.4 482.622 82.4C481.702 82.4 480.915 82.6933 480.262 83.28C479.622 83.8667 479.255 84.68 479.162 85.72H486.082Z" fill="white"/>
<path d="M578.347 92L575.027 86.3H572.827V92H571.007V78.06H575.507C576.56 78.06 577.447 78.24 578.167 78.6C578.9 78.96 579.447 79.4467 579.807 80.06C580.167 80.6733 580.347 81.3733 580.347 82.16C580.347 83.12 580.067 83.9667 579.507 84.7C578.96 85.4333 578.133 85.92 577.027 86.16L580.527 92H578.347ZM572.827 84.84H575.507C576.493 84.84 577.233 84.6 577.727 84.12C578.22 83.6267 578.467 82.9733 578.467 82.16C578.467 81.3333 578.22 80.6933 577.727 80.24C577.247 79.7867 576.507 79.56 575.507 79.56H572.827V84.84ZM593.175 86.1C593.175 86.4467 593.155 86.8133 593.115 87.2H584.355C584.421 88.28 584.788 89.1267 585.455 89.74C586.135 90.34 586.955 90.64 587.915 90.64C588.701 90.64 589.355 90.46 589.875 90.1C590.408 89.7267 590.781 89.2333 590.995 88.62H592.955C592.661 89.6733 592.075 90.5333 591.195 91.2C590.315 91.8533 589.221 92.18 587.915 92.18C586.875 92.18 585.941 91.9467 585.115 91.48C584.301 91.0133 583.661 90.3533 583.195 89.5C582.728 88.6333 582.495 87.6333 582.495 86.5C582.495 85.3667 582.721 84.3733 583.175 83.52C583.628 82.6667 584.261 82.0133 585.075 81.56C585.901 81.0933 586.848 80.86 587.915 80.86C588.955 80.86 589.875 81.0867 590.675 81.54C591.475 81.9933 592.088 82.62 592.515 83.42C592.955 84.2067 593.175 85.1 593.175 86.1ZM591.295 85.72C591.295 85.0267 591.141 84.4333 590.835 83.94C590.528 83.4333 590.108 83.0533 589.575 82.8C589.055 82.5333 588.475 82.4 587.835 82.4C586.915 82.4 586.128 82.6933 585.475 83.28C584.835 83.8667 584.468 84.68 584.375 85.72H591.295ZM599.457 92.18C598.617 92.18 597.864 92.04 597.197 91.76C596.53 91.4667 596.004 91.0667 595.617 90.56C595.23 90.04 595.017 89.4467 594.977 88.78H596.857C596.91 89.3267 597.164 89.7733 597.617 90.12C598.084 90.4667 598.69 90.64 599.437 90.64C600.13 90.64 600.677 90.4867 601.077 90.18C601.477 89.8733 601.677 89.4867 601.677 89.02C601.677 88.54 601.464 88.1867 601.037 87.96C600.61 87.72 599.95 87.4867 599.057 87.26C598.244 87.0467 597.577 86.8333 597.057 86.62C596.55 86.3933 596.11 86.0667 595.737 85.64C595.377 85.2 595.197 84.6267 595.197 83.92C595.197 83.36 595.364 82.8467 595.697 82.38C596.03 81.9133 596.504 81.5467 597.117 81.28C597.73 81 598.43 80.86 599.217 80.86C600.43 80.86 601.41 81.1667 602.157 81.78C602.904 82.3933 603.304 83.2333 603.357 84.3H601.537C601.497 83.7267 601.264 83.2667 600.837 82.92C600.424 82.5733 599.864 82.4 599.157 82.4C598.504 82.4 597.984 82.54 597.597 82.82C597.21 83.1 597.017 83.4667 597.017 83.92C597.017 84.28 597.13 84.58 597.357 84.82C597.597 85.0467 597.89 85.2333 598.237 85.38C598.597 85.5133 599.09 85.6667 599.717 85.84C600.504 86.0533 601.144 86.2667 601.637 86.48C602.13 86.68 602.55 86.9867 602.897 87.4C603.257 87.8133 603.444 88.3533 603.457 89.02C603.457 89.62 603.29 90.16 602.957 90.64C602.624 91.12 602.15 91.5 601.537 91.78C600.937 92.0467 600.244 92.18 599.457 92.18ZM610.806 92.18C609.78 92.18 608.846 91.9467 608.006 91.48C607.18 91.0133 606.526 90.3533 606.046 89.5C605.58 88.6333 605.346 87.6333 605.346 86.5C605.346 85.38 605.586 84.3933 606.066 83.54C606.56 82.6733 607.226 82.0133 608.066 81.56C608.906 81.0933 609.846 80.86 610.886 80.86C611.926 80.86 612.866 81.0933 613.706 81.56C614.546 82.0133 615.206 82.6667 615.686 83.52C616.18 84.3733 616.426 85.3667 616.426 86.5C616.426 87.6333 616.173 88.6333 615.666 89.5C615.173 90.3533 614.5 91.0133 613.646 91.48C612.793 91.9467 611.846 92.18 610.806 92.18ZM610.806 90.58C611.46 90.58 612.073 90.4267 612.646 90.12C613.22 89.8133 613.68 89.3533 614.026 88.74C614.386 88.1267 614.566 87.38 614.566 86.5C614.566 85.62 614.393 84.8733 614.046 84.26C613.7 83.6467 613.246 83.1933 612.686 82.9C612.126 82.5933 611.52 82.44 610.866 82.44C610.2 82.44 609.586 82.5933 609.026 82.9C608.48 83.1933 608.04 83.6467 607.706 84.26C607.373 84.8733 607.206 85.62 607.206 86.5C607.206 87.3933 607.366 88.1467 607.686 88.76C608.02 89.3733 608.46 89.8333 609.006 90.14C609.553 90.4333 610.153 90.58 610.806 90.58ZM628.539 81.04V92H626.719V90.38C626.373 90.94 625.886 91.38 625.259 91.7C624.646 92.0067 623.966 92.16 623.219 92.16C622.366 92.16 621.599 91.9867 620.919 91.64C620.239 91.28 619.699 90.7467 619.299 90.04C618.913 89.3333 618.719 88.4733 618.719 87.46V81.04H620.519V87.22C620.519 88.3 620.793 89.1333 621.339 89.72C621.886 90.2933 622.633 90.58 623.579 90.58C624.553 90.58 625.319 90.28 625.879 89.68C626.439 89.08 626.719 88.2067 626.719 87.06V81.04H628.539ZM633.432 82.82C633.752 82.1933 634.206 81.7067 634.792 81.36C635.392 81.0133 636.119 80.84 636.972 80.84V82.72H636.492C634.452 82.72 633.432 83.8267 633.432 86.04V92H631.612V81.04H633.432V82.82ZM638.393 86.5C638.393 85.3667 638.62 84.38 639.073 83.54C639.527 82.6867 640.153 82.0267 640.953 81.56C641.767 81.0933 642.693 80.86 643.733 80.86C645.08 80.86 646.187 81.1867 647.053 81.84C647.933 82.4933 648.513 83.4 648.793 84.56H646.833C646.647 83.8933 646.28 83.3667 645.733 82.98C645.2 82.5933 644.533 82.4 643.733 82.4C642.693 82.4 641.853 82.76 641.213 83.48C640.573 84.1867 640.253 85.1933 640.253 86.5C640.253 87.82 640.573 88.84 641.213 89.56C641.853 90.28 642.693 90.64 643.733 90.64C644.533 90.64 645.2 90.4533 645.733 90.08C646.267 89.7067 646.633 89.1733 646.833 88.48H648.793C648.5 89.6 647.913 90.5 647.033 91.18C646.153 91.8467 645.053 92.18 643.733 92.18C642.693 92.18 641.767 91.9467 640.953 91.48C640.153 91.0133 639.527 90.3533 639.073 89.5C638.62 88.6467 638.393 87.6467 638.393 86.5ZM661.222 86.1C661.222 86.4467 661.202 86.8133 661.162 87.2H652.402C652.468 88.28 652.835 89.1267 653.502 89.74C654.182 90.34 655.002 90.64 655.962 90.64C656.748 90.64 657.402 90.46 657.922 90.1C658.455 89.7267 658.828 89.2333 659.042 88.62H661.002C660.708 89.6733 660.122 90.5333 659.242 91.2C658.362 91.8533 657.268 92.18 655.962 92.18C654.922 92.18 653.988 91.9467 653.162 91.48C652.348 91.0133 651.708 90.3533 651.242 89.5C650.775 88.6333 650.542 87.6333 650.542 86.5C650.542 85.3667 650.768 84.3733 651.222 83.52C651.675 82.6667 652.308 82.0133 653.122 81.56C653.948 81.0933 654.895 80.86 655.962 80.86C657.002 80.86 657.922 81.0867 658.722 81.54C659.522 81.9933 660.135 82.62 660.562 83.42C661.002 84.2067 661.222 85.1 661.222 86.1ZM659.342 85.72C659.342 85.0267 659.188 84.4333 658.882 83.94C658.575 83.4333 658.155 83.0533 657.622 82.8C657.102 82.5333 656.522 82.4 655.882 82.4C654.962 82.4 654.175 82.6933 653.522 83.28C652.882 83.8667 652.515 84.68 652.422 85.72H659.342ZM667.504 92.18C666.664 92.18 665.911 92.04 665.244 91.76C664.577 91.4667 664.051 91.0667 663.664 90.56C663.277 90.04 663.064 89.4467 663.024 88.78H664.904C664.957 89.3267 665.211 89.7733 665.664 90.12C666.131 90.4667 666.737 90.64 667.484 90.64C668.177 90.64 668.724 90.4867 669.124 90.18C669.524 89.8733 669.724 89.4867 669.724 89.02C669.724 88.54 669.511 88.1867 669.084 87.96C668.657 87.72 667.997 87.4867 667.104 87.26C666.291 87.0467 665.624 86.8333 665.104 86.62C664.597 86.3933 664.157 86.0667 663.784 85.64C663.424 85.2 663.244 84.6267 663.244 83.92C663.244 83.36 663.411 82.8467 663.744 82.38C664.077 81.9133 664.551 81.5467 665.164 81.28C665.777 81 666.477 80.86 667.264 80.86C668.477 80.86 669.457 81.1667 670.204 81.78C670.951 82.3933 671.351 83.2333 671.404 84.3H669.584C669.544 83.7267 669.311 83.2667 668.884 82.92C668.471 82.5733 667.911 82.4 667.204 82.4C666.551 82.4 666.031 82.54 665.644 82.82C665.257 83.1 665.064 83.4667 665.064 83.92C665.064 84.28 665.177 84.58 665.404 84.82C665.644 85.0467 665.937 85.2333 666.284 85.38C666.644 85.5133 667.137 85.6667 667.764 85.84C668.551 86.0533 669.191 86.2667 669.684 86.48C670.177 86.68 670.597 86.9867 670.944 87.4C671.304 87.8133 671.491 88.3533 671.504 89.02C671.504 89.62 671.337 90.16 671.004 90.64C670.671 91.12 670.197 91.5 669.584 91.78C668.984 92.0467 668.291 92.18 667.504 92.18Z" fill="white"/>
<path d="M764.188 82.14C764.188 83.3 763.788 84.2667 762.988 85.04C762.201 85.8 760.995 86.18 759.368 86.18H756.688V92H754.868V78.06H759.368C760.941 78.06 762.135 78.44 762.948 79.2C763.775 79.96 764.188 80.94 764.188 82.14ZM759.368 84.68C760.381 84.68 761.128 84.46 761.608 84.02C762.088 83.58 762.328 82.9533 762.328 82.14C762.328 80.42 761.341 79.56 759.368 79.56H756.688V84.68H759.368ZM768.27 82.82C768.59 82.1933 769.043 81.7067 769.63 81.36C770.23 81.0133 770.957 80.84 771.81 80.84V82.72H771.33C769.29 82.72 768.27 83.8267 768.27 86.04V92H766.45V81.04H768.27V82.82ZM774.851 79.26C774.504 79.26 774.211 79.14 773.971 78.9C773.731 78.66 773.611 78.3667 773.611 78.02C773.611 77.6733 773.731 77.38 773.971 77.14C774.211 76.9 774.504 76.78 774.851 76.78C775.184 76.78 775.464 76.9 775.691 77.14C775.931 77.38 776.051 77.6733 776.051 78.02C776.051 78.3667 775.931 78.66 775.691 78.9C775.464 79.14 775.184 79.26 774.851 79.26ZM775.731 81.04V92H773.911V81.04H775.731ZM778.153 86.5C778.153 85.3667 778.38 84.38 778.833 83.54C779.286 82.6867 779.913 82.0267 780.713 81.56C781.526 81.0933 782.453 80.86 783.493 80.86C784.84 80.86 785.946 81.1867 786.813 81.84C787.693 82.4933 788.273 83.4 788.553 84.56H786.593C786.406 83.8933 786.04 83.3667 785.493 82.98C784.96 82.5933 784.293 82.4 783.493 82.4C782.453 82.4 781.613 82.76 780.973 83.48C780.333 84.1867 780.013 85.1933 780.013 86.5C780.013 87.82 780.333 88.84 780.973 89.56C781.613 90.28 782.453 90.64 783.493 90.64C784.293 90.64 784.96 90.4533 785.493 90.08C786.026 89.7067 786.393 89.1733 786.593 88.48H788.553C788.26 89.6 787.673 90.5 786.793 91.18C785.913 91.8467 784.813 92.18 783.493 92.18C782.453 92.18 781.526 91.9467 780.713 91.48C779.913 91.0133 779.286 90.3533 778.833 89.5C778.38 88.6467 778.153 87.6467 778.153 86.5ZM791.921 79.26C791.575 79.26 791.281 79.14 791.041 78.9C790.801 78.66 790.681 78.3667 790.681 78.02C790.681 77.6733 790.801 77.38 791.041 77.14C791.281 76.9 791.575 76.78 791.921 76.78C792.255 76.78 792.535 76.9 792.761 77.14C793.001 77.38 793.121 77.6733 793.121 78.02C793.121 78.3667 793.001 78.66 792.761 78.9C792.535 79.14 792.255 79.26 791.921 79.26ZM792.801 81.04V92H790.981V81.04H792.801ZM801.243 80.84C802.577 80.84 803.657 81.2467 804.483 82.06C805.31 82.86 805.723 84.02 805.723 85.54V92H803.923V85.8C803.923 84.7067 803.65 83.8733 803.103 83.3C802.557 82.7133 801.81 82.42 800.863 82.42C799.903 82.42 799.137 82.72 798.563 83.32C798.003 83.92 797.723 84.7933 797.723 85.94V92H795.903V81.04H797.723V82.6C798.083 82.04 798.57 81.6067 799.183 81.3C799.81 80.9933 800.497 80.84 801.243 80.84ZM813.216 80.86C814.163 80.86 814.99 81.0667 815.696 81.48C816.416 81.8933 816.95 82.4133 817.296 83.04V81.04H819.136V92.24C819.136 93.24 818.923 94.1267 818.496 94.9C818.07 95.6867 817.456 96.3 816.656 96.74C815.87 97.18 814.95 97.4 813.896 97.4C812.456 97.4 811.256 97.06 810.296 96.38C809.336 95.7 808.77 94.7733 808.596 93.6H810.396C810.596 94.2667 811.01 94.8 811.636 95.2C812.263 95.6133 813.016 95.82 813.896 95.82C814.896 95.82 815.71 95.5067 816.336 94.88C816.976 94.2533 817.296 93.3733 817.296 92.24V89.94C816.936 90.58 816.403 91.1133 815.696 91.54C814.99 91.9667 814.163 92.18 813.216 92.18C812.243 92.18 811.356 91.94 810.556 91.46C809.77 90.98 809.15 90.3067 808.696 89.44C808.243 88.5733 808.016 87.5867 808.016 86.48C808.016 85.36 808.243 84.38 808.696 83.54C809.15 82.6867 809.77 82.0267 810.556 81.56C811.356 81.0933 812.243 80.86 813.216 80.86ZM817.296 86.5C817.296 85.6733 817.13 84.9533 816.796 84.34C816.463 83.7267 816.01 83.26 815.436 82.94C814.876 82.6067 814.256 82.44 813.576 82.44C812.896 82.44 812.276 82.6 811.716 82.92C811.156 83.24 810.71 83.7067 810.376 84.32C810.043 84.9333 809.876 85.6533 809.876 86.48C809.876 87.32 810.043 88.0533 810.376 88.68C810.71 89.2933 811.156 89.7667 811.716 90.1C812.276 90.42 812.896 90.58 813.576 90.58C814.256 90.58 814.876 90.42 815.436 90.1C816.01 89.7667 816.463 89.2933 816.796 88.68C817.13 88.0533 817.296 87.3267 817.296 86.5Z" fill="white"/>
<path d="M902.087 85.02C902.087 83.66 902.393 82.44 903.007 81.36C903.62 80.2667 904.453 79.4133 905.507 78.8C906.573 78.1867 907.753 77.88 909.047 77.88C910.567 77.88 911.893 78.2467 913.027 78.98C914.16 79.7133 914.987 80.7533 915.507 82.1H913.327C912.94 81.26 912.38 80.6133 911.647 80.16C910.927 79.7067 910.06 79.48 909.047 79.48C908.073 79.48 907.2 79.7067 906.427 80.16C905.653 80.6133 905.047 81.26 904.607 82.1C904.167 82.9267 903.947 83.9 903.947 85.02C903.947 86.1267 904.167 87.1 904.607 87.94C905.047 88.7667 905.653 89.4067 906.427 89.86C907.2 90.3133 908.073 90.54 909.047 90.54C910.06 90.54 910.927 90.32 911.647 89.88C912.38 89.4267 912.94 88.78 913.327 87.94H915.507C914.987 89.2733 914.16 90.3067 913.027 91.04C911.893 91.76 910.567 92.12 909.047 92.12C907.753 92.12 906.573 91.82 905.507 91.22C904.453 90.6067 903.62 89.76 903.007 88.68C902.393 87.6 902.087 86.38 902.087 85.02ZM922.996 92.18C921.969 92.18 921.036 91.9467 920.196 91.48C919.369 91.0133 918.716 90.3533 918.236 89.5C917.769 88.6333 917.536 87.6333 917.536 86.5C917.536 85.38 917.776 84.3933 918.256 83.54C918.749 82.6733 919.416 82.0133 920.256 81.56C921.096 81.0933 922.036 80.86 923.076 80.86C924.116 80.86 925.056 81.0933 925.896 81.56C926.736 82.0133 927.396 82.6667 927.876 83.52C928.369 84.3733 928.616 85.3667 928.616 86.5C928.616 87.6333 928.362 88.6333 927.856 89.5C927.362 90.3533 926.689 91.0133 925.836 91.48C924.982 91.9467 924.036 92.18 922.996 92.18ZM922.996 90.58C923.649 90.58 924.262 90.4267 924.836 90.12C925.409 89.8133 925.869 89.3533 926.216 88.74C926.576 88.1267 926.756 87.38 926.756 86.5C926.756 85.62 926.582 84.8733 926.236 84.26C925.889 83.6467 925.436 83.1933 924.876 82.9C924.316 82.5933 923.709 82.44 923.056 82.44C922.389 82.44 921.776 82.5933 921.216 82.9C920.669 83.1933 920.229 83.6467 919.896 84.26C919.562 84.8733 919.396 85.62 919.396 86.5C919.396 87.3933 919.556 88.1467 919.876 88.76C920.209 89.3733 920.649 89.8333 921.196 90.14C921.742 90.4333 922.342 90.58 922.996 90.58ZM936.349 80.84C937.682 80.84 938.762 81.2467 939.589 82.06C940.415 82.86 940.829 84.02 940.829 85.54V92H939.029V85.8C939.029 84.7067 938.755 83.8733 938.209 83.3C937.662 82.7133 936.915 82.42 935.969 82.42C935.009 82.42 934.242 82.72 933.669 83.32C933.109 83.92 932.829 84.7933 932.829 85.94V92H931.009V81.04H932.829V82.6C933.189 82.04 933.675 81.6067 934.289 81.3C934.915 80.9933 935.602 80.84 936.349 80.84ZM946.022 82.54V89C946.022 89.5333 946.135 89.9133 946.362 90.14C946.588 90.3533 946.982 90.46 947.542 90.46H948.882V92H947.242C946.228 92 945.468 91.7667 944.962 91.3C944.455 90.8333 944.202 90.0667 944.202 89V82.54H942.782V81.04H944.202V78.28H946.022V81.04H948.882V82.54H946.022ZM950.407 86.48C950.407 85.36 950.634 84.38 951.087 83.54C951.54 82.6867 952.16 82.0267 952.947 81.56C953.747 81.0933 954.634 80.86 955.607 80.86C956.567 80.86 957.4 81.0667 958.107 81.48C958.814 81.8933 959.34 82.4133 959.687 83.04V81.04H961.527V92H959.687V89.96C959.327 90.6 958.787 91.1333 958.067 91.56C957.36 91.9733 956.534 92.18 955.587 92.18C954.614 92.18 953.734 91.94 952.947 91.46C952.16 90.98 951.54 90.3067 951.087 89.44C950.634 88.5733 950.407 87.5867 950.407 86.48ZM959.687 86.5C959.687 85.6733 959.52 84.9533 959.187 84.34C958.854 83.7267 958.4 83.26 957.827 82.94C957.267 82.6067 956.647 82.44 955.967 82.44C955.287 82.44 954.667 82.6 954.107 82.92C953.547 83.24 953.1 83.7067 952.767 84.32C952.434 84.9333 952.267 85.6533 952.267 86.48C952.267 87.32 952.434 88.0533 952.767 88.68C953.1 89.2933 953.547 89.7667 954.107 90.1C954.667 90.42 955.287 90.58 955.967 90.58C956.647 90.58 957.267 90.42 957.827 90.1C958.4 89.7667 958.854 89.2933 959.187 88.68C959.52 88.0533 959.687 87.3267 959.687 86.5ZM963.923 86.5C963.923 85.3667 964.149 84.38 964.603 83.54C965.056 82.6867 965.683 82.0267 966.483 81.56C967.296 81.0933 968.223 80.86 969.263 80.86C970.609 80.86 971.716 81.1867 972.583 81.84C973.463 82.4933 974.043 83.4 974.323 84.56H972.363C972.176 83.8933 971.809 83.3667 971.263 82.98C970.729 82.5933 970.063 82.4 969.263 82.4C968.223 82.4 967.383 82.76 966.743 83.48C966.103 84.1867 965.783 85.1933 965.783 86.5C965.783 87.82 966.103 88.84 966.743 89.56C967.383 90.28 968.223 90.64 969.263 90.64C970.063 90.64 970.729 90.4533 971.263 90.08C971.796 89.7067 972.163 89.1733 972.363 88.48H974.323C974.029 89.6 973.443 90.5 972.563 91.18C971.683 91.8467 970.583 92.18 969.263 92.18C968.223 92.18 967.296 91.9467 966.483 91.48C965.683 91.0133 965.056 90.3533 964.603 89.5C964.149 88.6467 963.923 87.6467 963.923 86.5ZM978.971 82.54V89C978.971 89.5333 979.084 89.9133 979.311 90.14C979.538 90.3533 979.931 90.46 980.491 90.46H981.831V92H980.191C979.178 92 978.418 91.7667 977.911 91.3C977.404 90.8333 977.151 90.0667 977.151 89V82.54H975.731V81.04H977.151V78.28H978.971V81.04H981.831V82.54H978.971ZM991.148 78.06V86.88C991.148 88.12 991.448 89.04 992.048 89.64C992.661 90.24 993.508 90.54 994.588 90.54C995.655 90.54 996.488 90.24 997.088 89.64C997.701 89.04 998.008 88.12 998.008 86.88V78.06H999.828V86.86C999.828 88.02 999.595 89 999.128 89.8C998.661 90.5867 998.028 91.1733 997.228 91.56C996.441 91.9467 995.555 92.14 994.568 92.14C993.581 92.14 992.688 91.9467 991.888 91.56C991.101 91.1733 990.475 90.5867 990.008 89.8C989.555 89 989.328 88.02 989.328 86.86V78.06H991.148ZM1006.74 92.18C1005.9 92.18 1005.15 92.04 1004.48 91.76C1003.82 91.4667 1003.29 91.0667 1002.9 90.56C1002.52 90.04 1002.3 89.4467 1002.26 88.78H1004.14C1004.2 89.3267 1004.45 89.7733 1004.9 90.12C1005.37 90.4667 1005.98 90.64 1006.72 90.64C1007.42 90.64 1007.96 90.4867 1008.36 90.18C1008.76 89.8733 1008.96 89.4867 1008.96 89.02C1008.96 88.54 1008.75 88.1867 1008.32 87.96C1007.9 87.72 1007.24 87.4867 1006.34 87.26C1005.53 87.0467 1004.86 86.8333 1004.34 86.62C1003.84 86.3933 1003.4 86.0667 1003.02 85.64C1002.66 85.2 1002.48 84.6267 1002.48 83.92C1002.48 83.36 1002.65 82.8467 1002.98 82.38C1003.32 81.9133 1003.79 81.5467 1004.4 81.28C1005.02 81 1005.72 80.86 1006.5 80.86C1007.72 80.86 1008.7 81.1667 1009.44 81.78C1010.19 82.3933 1010.59 83.2333 1010.64 84.3H1008.82C1008.78 83.7267 1008.55 83.2667 1008.12 82.92C1007.71 82.5733 1007.15 82.4 1006.44 82.4C1005.79 82.4 1005.27 82.54 1004.88 82.82C1004.5 83.1 1004.3 83.4667 1004.3 83.92C1004.3 84.28 1004.42 84.58 1004.64 84.82C1004.88 85.0467 1005.18 85.2333 1005.52 85.38C1005.88 85.5133 1006.38 85.6667 1007 85.84C1007.79 86.0533 1008.43 86.2667 1008.92 86.48C1009.42 86.68 1009.84 86.9867 1010.18 87.4C1010.54 87.8133 1010.73 88.3533 1010.74 89.02C1010.74 89.62 1010.58 90.16 1010.24 90.64C1009.91 91.12 1009.44 91.5 1008.82 91.78C1008.22 92.0467 1007.53 92.18 1006.74 92.18Z" fill="white"/>
</svg>
