<svg width="633" height="549" viewBox="0 0 633 549" fill="none" xmlns="http://www.w3.org/2000/svg">
<g style="mix-blend-mode:plus-lighter" filter="url(#filter0_f_97_16483)">
<path d="M301.252 168H316.713L426.188 396H185.719L301.252 168Z" fill="#0C0C0C"/>
</g>
<g style="mix-blend-mode:plus-lighter" filter="url(#filter1_f_97_16483)">
<path d="M310.694 168H329.789L465 380.634H168L310.694 168Z" fill="#263048"/>
</g>
<path d="M223.535 370.14C222.602 370.14 221.762 369.98 221.015 369.66C220.268 369.327 219.682 368.86 219.255 368.26C218.828 367.66 218.615 366.96 218.615 366.16H221.055C221.108 366.76 221.342 367.253 221.755 367.64C222.182 368.027 222.775 368.22 223.535 368.22C224.322 368.22 224.935 368.033 225.375 367.66C225.815 367.273 226.035 366.78 226.035 366.18C226.035 365.713 225.895 365.333 225.615 365.04C225.348 364.747 225.008 364.52 224.595 364.36C224.195 364.2 223.635 364.027 222.915 363.84C222.008 363.6 221.268 363.36 220.695 363.12C220.135 362.867 219.655 362.48 219.255 361.96C218.855 361.44 218.655 360.747 218.655 359.88C218.655 359.08 218.855 358.38 219.255 357.78C219.655 357.18 220.215 356.72 220.935 356.4C221.655 356.08 222.488 355.92 223.435 355.92C224.782 355.92 225.882 356.26 226.735 356.94C227.602 357.607 228.082 358.527 228.175 359.7H225.655C225.615 359.193 225.375 358.76 224.935 358.4C224.495 358.04 223.915 357.86 223.195 357.86C222.542 357.86 222.008 358.027 221.595 358.36C221.182 358.693 220.975 359.173 220.975 359.8C220.975 360.227 221.102 360.58 221.355 360.86C221.622 361.127 221.955 361.34 222.355 361.5C222.755 361.66 223.302 361.833 223.995 362.02C224.915 362.273 225.662 362.527 226.235 362.78C226.822 363.033 227.315 363.427 227.715 363.96C228.128 364.48 228.335 365.18 228.335 366.06C228.335 366.767 228.142 367.433 227.755 368.06C227.382 368.687 226.828 369.193 226.095 369.58C225.375 369.953 224.522 370.14 223.535 370.14ZM244.365 358.8C245.232 358.8 246.005 358.98 246.685 359.34C247.379 359.7 247.919 360.233 248.305 360.94C248.705 361.647 248.905 362.5 248.905 363.5V370H246.645V363.84C246.645 362.853 246.399 362.1 245.905 361.58C245.412 361.047 244.739 360.78 243.885 360.78C243.032 360.78 242.352 361.047 241.845 361.58C241.352 362.1 241.105 362.853 241.105 363.84V370H238.845V363.84C238.845 362.853 238.599 362.1 238.105 361.58C237.612 361.047 236.939 360.78 236.085 360.78C235.232 360.78 234.552 361.047 234.045 361.58C233.552 362.1 233.305 362.853 233.305 363.84V370H231.025V358.98H233.305V360.24C233.679 359.787 234.152 359.433 234.725 359.18C235.299 358.927 235.912 358.8 236.565 358.8C237.445 358.8 238.232 358.987 238.925 359.36C239.619 359.733 240.152 360.273 240.525 360.98C240.859 360.313 241.379 359.787 242.085 359.4C242.792 359 243.552 358.8 244.365 358.8ZM251.047 364.44C251.047 363.333 251.273 362.353 251.727 361.5C252.193 360.647 252.82 359.987 253.607 359.52C254.407 359.04 255.287 358.8 256.247 358.8C257.113 358.8 257.867 358.973 258.507 359.32C259.16 359.653 259.68 360.073 260.067 360.58V358.98H262.367V370H260.067V368.36C259.68 368.88 259.153 369.313 258.487 369.66C257.82 370.007 257.06 370.18 256.207 370.18C255.26 370.18 254.393 369.94 253.607 369.46C252.82 368.967 252.193 368.287 251.727 367.42C251.273 366.54 251.047 365.547 251.047 364.44ZM260.067 364.48C260.067 363.72 259.907 363.06 259.587 362.5C259.28 361.94 258.873 361.513 258.367 361.22C257.86 360.927 257.313 360.78 256.727 360.78C256.14 360.78 255.593 360.927 255.087 361.22C254.58 361.5 254.167 361.92 253.847 362.48C253.54 363.027 253.387 363.68 253.387 364.44C253.387 365.2 253.54 365.867 253.847 366.44C254.167 367.013 254.58 367.453 255.087 367.76C255.607 368.053 256.153 368.2 256.727 368.2C257.313 368.2 257.86 368.053 258.367 367.76C258.873 367.467 259.28 367.04 259.587 366.48C259.907 365.907 260.067 365.24 260.067 364.48ZM267.641 360.58C267.975 360.02 268.415 359.587 268.961 359.28C269.521 358.96 270.181 358.8 270.941 358.8V361.16H270.361C269.468 361.16 268.788 361.387 268.321 361.84C267.868 362.293 267.641 363.08 267.641 364.2V370H265.361V358.98H267.641V360.58ZM275.697 360.84V366.94C275.697 367.353 275.79 367.653 275.977 367.84C276.177 368.013 276.51 368.1 276.977 368.1H278.377V370H276.577C275.55 370 274.764 369.76 274.217 369.28C273.67 368.8 273.397 368.02 273.397 366.94V360.84H272.097V358.98H273.397V356.24H275.697V358.98H278.377V360.84H275.697ZM294.054 367.16H288.234L287.234 370H284.854L289.834 356.08H292.474L297.454 370H295.054L294.054 367.16ZM293.414 365.3L291.154 358.84L288.874 365.3H293.414ZM298.859 364.44C298.859 363.333 299.086 362.353 299.539 361.5C300.006 360.647 300.632 359.987 301.419 359.52C302.219 359.04 303.106 358.8 304.079 358.8C304.799 358.8 305.506 358.96 306.199 359.28C306.906 359.587 307.466 360 307.879 360.52V355.2H310.179V370H307.879V368.34C307.506 368.873 306.986 369.313 306.319 369.66C305.666 370.007 304.912 370.18 304.059 370.18C303.099 370.18 302.219 369.94 301.419 369.46C300.632 368.967 300.006 368.287 299.539 367.42C299.086 366.54 298.859 365.547 298.859 364.44ZM307.879 364.48C307.879 363.72 307.719 363.06 307.399 362.5C307.092 361.94 306.686 361.513 306.179 361.22C305.672 360.927 305.126 360.78 304.539 360.78C303.952 360.78 303.406 360.927 302.899 361.22C302.392 361.5 301.979 361.92 301.659 362.48C301.352 363.027 301.199 363.68 301.199 364.44C301.199 365.2 301.352 365.867 301.659 366.44C301.979 367.013 302.392 367.453 302.899 367.76C303.419 368.053 303.966 368.2 304.539 368.2C305.126 368.2 305.672 368.053 306.179 367.76C306.686 367.467 307.092 367.04 307.399 366.48C307.719 365.907 307.879 365.24 307.879 364.48ZM327.349 356.1V357.96H323.649V370H321.369V357.96H317.649V356.1H327.349ZM328.898 364.44C328.898 363.333 329.125 362.353 329.578 361.5C330.045 360.647 330.672 359.987 331.458 359.52C332.258 359.04 333.138 358.8 334.098 358.8C334.965 358.8 335.718 358.973 336.358 359.32C337.012 359.653 337.532 360.073 337.918 360.58V358.98H340.218V370H337.918V368.36C337.532 368.88 337.005 369.313 336.338 369.66C335.672 370.007 334.912 370.18 334.058 370.18C333.112 370.18 332.245 369.94 331.458 369.46C330.672 368.967 330.045 368.287 329.578 367.42C329.125 366.54 328.898 365.547 328.898 364.44ZM337.918 364.48C337.918 363.72 337.758 363.06 337.438 362.5C337.132 361.94 336.725 361.513 336.218 361.22C335.712 360.927 335.165 360.78 334.578 360.78C333.992 360.78 333.445 360.927 332.938 361.22C332.432 361.5 332.018 361.92 331.698 362.48C331.392 363.027 331.238 363.68 331.238 364.44C331.238 365.2 331.392 365.867 331.698 366.44C332.018 367.013 332.432 367.453 332.938 367.76C333.458 368.053 334.005 368.2 334.578 368.2C335.165 368.2 335.712 368.053 336.218 367.76C336.725 367.467 337.132 367.04 337.438 366.48C337.758 365.907 337.918 365.24 337.918 364.48ZM345.493 360.58C345.826 360.02 346.266 359.587 346.813 359.28C347.373 358.96 348.033 358.8 348.793 358.8V361.16H348.213C347.32 361.16 346.64 361.387 346.173 361.84C345.72 362.293 345.493 363.08 345.493 364.2V370H343.213V358.98H345.493V360.58ZM355.329 358.8C356.182 358.8 356.935 358.973 357.589 359.32C358.255 359.653 358.775 360.073 359.149 360.58V358.98H361.449V370.18C361.449 371.193 361.235 372.093 360.809 372.88C360.382 373.68 359.762 374.307 358.949 374.76C358.149 375.213 357.189 375.44 356.069 375.44C354.575 375.44 353.335 375.087 352.349 374.38C351.362 373.687 350.802 372.74 350.669 371.54H352.929C353.102 372.113 353.469 372.573 354.029 372.92C354.602 373.28 355.282 373.46 356.069 373.46C356.989 373.46 357.729 373.18 358.289 372.62C358.862 372.06 359.149 371.247 359.149 370.18V368.34C358.762 368.86 358.235 369.3 357.569 369.66C356.915 370.007 356.169 370.18 355.329 370.18C354.369 370.18 353.489 369.94 352.689 369.46C351.902 368.967 351.275 368.287 350.809 367.42C350.355 366.54 350.129 365.547 350.129 364.44C350.129 363.333 350.355 362.353 350.809 361.5C351.275 360.647 351.902 359.987 352.689 359.52C353.489 359.04 354.369 358.8 355.329 358.8ZM359.149 364.48C359.149 363.72 358.989 363.06 358.669 362.5C358.362 361.94 357.955 361.513 357.449 361.22C356.942 360.927 356.395 360.78 355.809 360.78C355.222 360.78 354.675 360.927 354.169 361.22C353.662 361.5 353.249 361.92 352.929 362.48C352.622 363.027 352.469 363.68 352.469 364.44C352.469 365.2 352.622 365.867 352.929 366.44C353.249 367.013 353.662 367.453 354.169 367.76C354.689 368.053 355.235 368.2 355.809 368.2C356.395 368.2 356.942 368.053 357.449 367.76C357.955 367.467 358.362 367.04 358.669 366.48C358.989 365.907 359.149 365.24 359.149 364.48ZM374.543 364.22C374.543 364.633 374.517 365.007 374.463 365.34H366.043C366.11 366.22 366.437 366.927 367.023 367.46C367.61 367.993 368.33 368.26 369.183 368.26C370.41 368.26 371.277 367.747 371.783 366.72H374.243C373.91 367.733 373.303 368.567 372.423 369.22C371.557 369.86 370.477 370.18 369.183 370.18C368.13 370.18 367.183 369.947 366.343 369.48C365.517 369 364.863 368.333 364.383 367.48C363.917 366.613 363.683 365.613 363.683 364.48C363.683 363.347 363.91 362.353 364.363 361.5C364.83 360.633 365.477 359.967 366.303 359.5C367.143 359.033 368.103 358.8 369.183 358.8C370.223 358.8 371.15 359.027 371.963 359.48C372.777 359.933 373.41 360.573 373.863 361.4C374.317 362.213 374.543 363.153 374.543 364.22ZM372.163 363.5C372.15 362.66 371.85 361.987 371.263 361.48C370.677 360.973 369.95 360.72 369.083 360.72C368.297 360.72 367.623 360.973 367.063 361.48C366.503 361.973 366.17 362.647 366.063 363.5H372.163ZM379.447 360.84V366.94C379.447 367.353 379.54 367.653 379.727 367.84C379.927 368.013 380.26 368.1 380.727 368.1H382.127V370H380.327C379.3 370 378.514 369.76 377.967 369.28C377.42 368.8 377.147 368.02 377.147 366.94V360.84H375.847V358.98H377.147V356.24H379.447V358.98H382.127V360.84H379.447ZM385.389 357.52C384.975 357.52 384.629 357.38 384.349 357.1C384.069 356.82 383.929 356.473 383.929 356.06C383.929 355.647 384.069 355.3 384.349 355.02C384.629 354.74 384.975 354.6 385.389 354.6C385.789 354.6 386.129 354.74 386.409 355.02C386.689 355.3 386.829 355.647 386.829 356.06C386.829 356.473 386.689 356.82 386.409 357.1C386.129 357.38 385.789 357.52 385.389 357.52ZM386.509 358.98V370H384.229V358.98H386.509ZM395.062 358.8C395.929 358.8 396.702 358.98 397.382 359.34C398.075 359.7 398.615 360.233 399.002 360.94C399.389 361.647 399.582 362.5 399.582 363.5V370H397.322V363.84C397.322 362.853 397.075 362.1 396.582 361.58C396.089 361.047 395.415 360.78 394.562 360.78C393.709 360.78 393.029 361.047 392.522 361.58C392.029 362.1 391.782 362.853 391.782 363.84V370H389.502V358.98H391.782V360.24C392.155 359.787 392.629 359.433 393.202 359.18C393.789 358.927 394.409 358.8 395.062 358.8ZM406.93 358.8C407.784 358.8 408.537 358.973 409.19 359.32C409.857 359.653 410.377 360.073 410.75 360.58V358.98H413.05V370.18C413.05 371.193 412.837 372.093 412.41 372.88C411.984 373.68 411.364 374.307 410.55 374.76C409.75 375.213 408.79 375.44 407.67 375.44C406.177 375.44 404.937 375.087 403.95 374.38C402.964 373.687 402.404 372.74 402.27 371.54H404.53C404.704 372.113 405.07 372.573 405.63 372.92C406.204 373.28 406.884 373.46 407.67 373.46C408.59 373.46 409.33 373.18 409.89 372.62C410.464 372.06 410.75 371.247 410.75 370.18V368.34C410.364 368.86 409.837 369.3 409.17 369.66C408.517 370.007 407.77 370.18 406.93 370.18C405.97 370.18 405.09 369.94 404.29 369.46C403.504 368.967 402.877 368.287 402.41 367.42C401.957 366.54 401.73 365.547 401.73 364.44C401.73 363.333 401.957 362.353 402.41 361.5C402.877 360.647 403.504 359.987 404.29 359.52C405.09 359.04 405.97 358.8 406.93 358.8ZM410.75 364.48C410.75 363.72 410.59 363.06 410.27 362.5C409.964 361.94 409.557 361.513 409.05 361.22C408.544 360.927 407.997 360.78 407.41 360.78C406.824 360.78 406.277 360.927 405.77 361.22C405.264 361.5 404.85 361.92 404.53 362.48C404.224 363.027 404.07 363.68 404.07 364.44C404.07 365.2 404.224 365.867 404.53 366.44C404.85 367.013 405.264 367.453 405.77 367.76C406.29 368.053 406.837 368.2 407.41 368.2C407.997 368.2 408.544 368.053 409.05 367.76C409.557 367.467 409.964 367.04 410.27 366.48C410.59 365.907 410.75 365.24 410.75 364.48Z" fill="white"/>
<path d="M212.008 405.676H207.556L206.702 408H205.666L209.236 398.34H210.342L213.898 408H212.862L212.008 405.676ZM211.714 404.864L209.782 399.572L207.85 404.864H211.714ZM216.451 398.214V408H215.471V398.214H216.451ZM223.416 402.4V403.226H217.97V402.4H223.416ZM230.737 402.036C230.98 401.523 231.363 401.098 231.885 400.762C232.417 400.417 233.047 400.244 233.775 400.244C234.466 400.244 235.087 400.407 235.637 400.734C236.197 401.051 236.631 401.509 236.939 402.106C237.257 402.694 237.415 403.38 237.415 404.164C237.415 404.948 237.257 405.639 236.939 406.236C236.631 406.833 236.197 407.295 235.637 407.622C235.087 407.949 234.466 408.112 233.775 408.112C233.057 408.112 232.431 407.944 231.899 407.608C231.367 407.263 230.98 406.833 230.737 406.32V411.612H229.771V400.356H230.737V402.036ZM236.421 404.164C236.421 403.529 236.295 402.983 236.043 402.526C235.801 402.059 235.465 401.705 235.035 401.462C234.606 401.219 234.121 401.098 233.579 401.098C233.057 401.098 232.576 401.224 232.137 401.476C231.708 401.728 231.367 402.087 231.115 402.554C230.863 403.021 230.737 403.562 230.737 404.178C230.737 404.794 230.863 405.335 231.115 405.802C231.367 406.269 231.708 406.628 232.137 406.88C232.576 407.132 233.057 407.258 233.579 407.258C234.121 407.258 234.606 407.137 235.035 406.894C235.465 406.642 235.801 406.283 236.043 405.816C236.295 405.34 236.421 404.789 236.421 404.164ZM242.565 408.112C241.846 408.112 241.197 407.953 240.619 407.636C240.049 407.309 239.597 406.852 239.261 406.264C238.934 405.667 238.771 404.971 238.771 404.178C238.771 403.385 238.939 402.694 239.275 402.106C239.611 401.509 240.068 401.051 240.647 400.734C241.225 400.407 241.874 400.244 242.593 400.244C243.311 400.244 243.96 400.407 244.539 400.734C245.127 401.051 245.584 401.509 245.911 402.106C246.247 402.694 246.415 403.385 246.415 404.178C246.415 404.962 246.247 405.653 245.911 406.25C245.575 406.847 245.113 407.309 244.525 407.636C243.937 407.953 243.283 408.112 242.565 408.112ZM242.565 407.258C243.069 407.258 243.535 407.146 243.965 406.922C244.394 406.689 244.739 406.343 245.001 405.886C245.271 405.419 245.407 404.85 245.407 404.178C245.407 403.506 245.276 402.941 245.015 402.484C244.753 402.017 244.408 401.672 243.979 401.448C243.549 401.215 243.083 401.098 242.579 401.098C242.075 401.098 241.608 401.215 241.179 401.448C240.749 401.672 240.404 402.017 240.143 402.484C239.891 402.941 239.765 403.506 239.765 404.178C239.765 404.85 239.891 405.419 240.143 405.886C240.404 406.343 240.745 406.689 241.165 406.922C241.594 407.146 242.061 407.258 242.565 407.258ZM258.281 400.356L255.887 408H254.907L252.793 401.588L250.679 408H249.685L247.291 400.356H248.285L250.189 407.006L252.331 400.356H253.311L255.425 407.02L257.315 400.356H258.281ZM266.533 403.786C266.533 404.122 266.524 404.379 266.505 404.556H260.163C260.191 405.135 260.331 405.629 260.583 406.04C260.835 406.451 261.166 406.763 261.577 406.978C261.988 407.183 262.436 407.286 262.921 407.286C263.556 407.286 264.088 407.132 264.517 406.824C264.956 406.516 265.245 406.101 265.385 405.578H266.421C266.234 406.325 265.833 406.936 265.217 407.412C264.61 407.879 263.845 408.112 262.921 408.112C262.202 408.112 261.558 407.953 260.989 407.636C260.42 407.309 259.972 406.852 259.645 406.264C259.328 405.667 259.169 404.971 259.169 404.178C259.169 403.385 259.328 402.689 259.645 402.092C259.962 401.495 260.406 401.037 260.975 400.72C261.544 400.403 262.193 400.244 262.921 400.244C263.649 400.244 264.284 400.403 264.825 400.72C265.376 401.037 265.796 401.467 266.085 402.008C266.384 402.54 266.533 403.133 266.533 403.786ZM265.539 403.758C265.548 403.189 265.432 402.703 265.189 402.302C264.956 401.901 264.634 401.597 264.223 401.392C263.812 401.187 263.364 401.084 262.879 401.084C262.151 401.084 261.53 401.317 261.017 401.784C260.504 402.251 260.219 402.909 260.163 403.758H265.539ZM269.306 401.714C269.521 401.238 269.847 400.869 270.286 400.608C270.734 400.347 271.28 400.216 271.924 400.216V401.238H271.658C270.949 401.238 270.379 401.429 269.95 401.812C269.521 402.195 269.306 402.834 269.306 403.73V408H268.326V400.356H269.306V401.714ZM280.314 403.786C280.314 404.122 280.305 404.379 280.286 404.556H273.944C273.972 405.135 274.112 405.629 274.364 406.04C274.616 406.451 274.948 406.763 275.358 406.978C275.769 407.183 276.217 407.286 276.702 407.286C277.337 407.286 277.869 407.132 278.298 406.824C278.737 406.516 279.026 406.101 279.166 405.578H280.202C280.016 406.325 279.614 406.936 278.998 407.412C278.392 407.879 277.626 408.112 276.702 408.112C275.984 408.112 275.34 407.953 274.77 407.636C274.201 407.309 273.753 406.852 273.426 406.264C273.109 405.667 272.95 404.971 272.95 404.178C272.95 403.385 273.109 402.689 273.426 402.092C273.744 401.495 274.187 401.037 274.756 400.72C275.326 400.403 275.974 400.244 276.702 400.244C277.43 400.244 278.065 400.403 278.606 400.72C279.157 401.037 279.577 401.467 279.866 402.008C280.165 402.54 280.314 403.133 280.314 403.786ZM279.32 403.758C279.33 403.189 279.213 402.703 278.97 402.302C278.737 401.901 278.415 401.597 278.004 401.392C277.594 401.187 277.146 401.084 276.66 401.084C275.932 401.084 275.312 401.317 274.798 401.784C274.285 402.251 274 402.909 273.944 403.758H279.32ZM281.659 404.164C281.659 403.38 281.818 402.694 282.135 402.106C282.453 401.509 282.887 401.051 283.437 400.734C283.997 400.407 284.627 400.244 285.327 400.244C285.999 400.244 286.606 400.407 287.147 400.734C287.689 401.061 288.085 401.485 288.337 402.008V397.64H289.317V408H288.337V406.292C288.104 406.824 287.721 407.263 287.189 407.608C286.657 407.944 286.032 408.112 285.313 408.112C284.613 408.112 283.983 407.949 283.423 407.622C282.873 407.295 282.439 406.833 282.121 406.236C281.813 405.639 281.659 404.948 281.659 404.164ZM288.337 404.178C288.337 403.562 288.211 403.021 287.959 402.554C287.707 402.087 287.362 401.728 286.923 401.476C286.494 401.224 286.018 401.098 285.495 401.098C284.954 401.098 284.469 401.219 284.039 401.462C283.61 401.705 283.269 402.059 283.017 402.526C282.775 402.983 282.653 403.529 282.653 404.164C282.653 404.789 282.775 405.34 283.017 405.816C283.269 406.283 283.61 406.642 284.039 406.894C284.469 407.137 284.954 407.258 285.495 407.258C286.018 407.258 286.494 407.132 286.923 406.88C287.362 406.628 287.707 406.269 287.959 405.802C288.211 405.335 288.337 404.794 288.337 404.178ZM301.066 405.676H296.614L295.76 408H294.724L298.294 398.34H299.4L302.956 408H301.92L301.066 405.676ZM300.772 404.864L298.84 399.572L296.908 404.864H300.772ZM311.151 400.356V408H310.171V406.656C309.947 407.132 309.602 407.496 309.135 407.748C308.669 408 308.146 408.126 307.567 408.126C306.653 408.126 305.906 407.846 305.327 407.286C304.749 406.717 304.459 405.895 304.459 404.822V400.356H305.425V404.71C305.425 405.541 305.631 406.175 306.041 406.614C306.461 407.053 307.031 407.272 307.749 407.272C308.487 407.272 309.075 407.039 309.513 406.572C309.952 406.105 310.171 405.419 310.171 404.514V400.356H311.151ZM312.941 404.164C312.941 403.38 313.099 402.694 313.417 402.106C313.734 401.509 314.168 401.051 314.719 400.734C315.279 400.407 315.909 400.244 316.609 400.244C317.281 400.244 317.887 400.407 318.429 400.734C318.97 401.061 319.367 401.485 319.619 402.008V397.64H320.599V408H319.619V406.292C319.385 406.824 319.003 407.263 318.471 407.608C317.939 407.944 317.313 408.112 316.595 408.112C315.895 408.112 315.265 407.949 314.705 407.622C314.154 407.295 313.72 406.833 313.403 406.236C313.095 405.639 312.941 404.948 312.941 404.164ZM319.619 404.178C319.619 403.562 319.493 403.021 319.241 402.554C318.989 402.087 318.643 401.728 318.205 401.476C317.775 401.224 317.299 401.098 316.777 401.098C316.235 401.098 315.75 401.219 315.321 401.462C314.891 401.705 314.551 402.059 314.299 402.526C314.056 402.983 313.935 403.529 313.935 404.164C313.935 404.789 314.056 405.34 314.299 405.816C314.551 406.283 314.891 406.642 315.321 406.894C315.75 407.137 316.235 407.258 316.777 407.258C317.299 407.258 317.775 407.132 318.205 406.88C318.643 406.628 318.989 406.269 319.241 405.802C319.493 405.335 319.619 404.794 319.619 404.178ZM323.326 398.914C323.13 398.914 322.962 398.844 322.822 398.704C322.682 398.564 322.612 398.391 322.612 398.186C322.612 397.981 322.682 397.813 322.822 397.682C322.962 397.542 323.13 397.472 323.326 397.472C323.522 397.472 323.69 397.542 323.83 397.682C323.97 397.813 324.04 397.981 324.04 398.186C324.04 398.391 323.97 398.564 323.83 398.704C323.69 398.844 323.522 398.914 323.326 398.914ZM323.816 400.356V408H322.836V400.356H323.816ZM332.951 403.786C332.951 404.122 332.942 404.379 332.923 404.556H326.581C326.609 405.135 326.749 405.629 327.001 406.04C327.253 406.451 327.584 406.763 327.995 406.978C328.406 407.183 328.854 407.286 329.339 407.286C329.974 407.286 330.506 407.132 330.935 406.824C331.374 406.516 331.663 406.101 331.803 405.578H332.839C332.652 406.325 332.251 406.936 331.635 407.412C331.028 407.879 330.263 408.112 329.339 408.112C328.62 408.112 327.976 407.953 327.407 407.636C326.838 407.309 326.39 406.852 326.063 406.264C325.746 405.667 325.587 404.971 325.587 404.178C325.587 403.385 325.746 402.689 326.063 402.092C326.38 401.495 326.824 401.037 327.393 400.72C327.962 400.403 328.611 400.244 329.339 400.244C330.067 400.244 330.702 400.403 331.243 400.72C331.794 401.037 332.214 401.467 332.503 402.008C332.802 402.54 332.951 403.133 332.951 403.786ZM331.957 403.758C331.966 403.189 331.85 402.703 331.607 402.302C331.374 401.901 331.052 401.597 330.641 401.392C330.23 401.187 329.782 401.084 329.297 401.084C328.569 401.084 327.948 401.317 327.435 401.784C326.922 402.251 326.637 402.909 326.581 403.758H331.957ZM338.328 400.216C339.243 400.216 339.989 400.501 340.568 401.07C341.147 401.63 341.436 402.447 341.436 403.52V408H340.47V403.632C340.47 402.801 340.26 402.167 339.84 401.728C339.429 401.289 338.865 401.07 338.146 401.07C337.409 401.07 336.821 401.303 336.382 401.77C335.943 402.237 335.724 402.923 335.724 403.828V408H334.744V400.356H335.724V401.658C335.967 401.191 336.317 400.837 336.774 400.594C337.231 400.342 337.749 400.216 338.328 400.216ZM343.155 404.178C343.155 403.385 343.314 402.694 343.631 402.106C343.949 401.509 344.387 401.051 344.947 400.734C345.507 400.407 346.147 400.244 346.865 400.244C347.808 400.244 348.583 400.477 349.189 400.944C349.805 401.411 350.202 402.045 350.379 402.848H349.329C349.199 402.297 348.914 401.868 348.475 401.56C348.046 401.243 347.509 401.084 346.865 401.084C346.352 401.084 345.89 401.201 345.479 401.434C345.069 401.667 344.742 402.017 344.499 402.484C344.266 402.941 344.149 403.506 344.149 404.178C344.149 404.85 344.266 405.419 344.499 405.886C344.742 406.353 345.069 406.703 345.479 406.936C345.89 407.169 346.352 407.286 346.865 407.286C347.509 407.286 348.046 407.132 348.475 406.824C348.914 406.507 349.199 406.068 349.329 405.508H350.379C350.202 406.292 349.805 406.922 349.189 407.398C348.573 407.874 347.799 408.112 346.865 408.112C346.147 408.112 345.507 407.953 344.947 407.636C344.387 407.309 343.949 406.852 343.631 406.264C343.314 405.667 343.155 404.971 343.155 404.178ZM359.105 403.786C359.105 404.122 359.096 404.379 359.077 404.556H352.735C352.763 405.135 352.903 405.629 353.155 406.04C353.407 406.451 353.739 406.763 354.149 406.978C354.56 407.183 355.008 407.286 355.493 407.286C356.128 407.286 356.66 407.132 357.089 406.824C357.528 406.516 357.817 406.101 357.957 405.578H358.993C358.807 406.325 358.405 406.936 357.789 407.412C357.183 407.879 356.417 408.112 355.493 408.112C354.775 408.112 354.131 407.953 353.561 407.636C352.992 407.309 352.544 406.852 352.217 406.264C351.9 405.667 351.741 404.971 351.741 404.178C351.741 403.385 351.9 402.689 352.217 402.092C352.535 401.495 352.978 401.037 353.547 400.72C354.117 400.403 354.765 400.244 355.493 400.244C356.221 400.244 356.856 400.403 357.397 400.72C357.948 401.037 358.368 401.467 358.657 402.008C358.956 402.54 359.105 403.133 359.105 403.786ZM358.111 403.758C358.121 403.189 358.004 402.703 357.761 402.302C357.528 401.901 357.206 401.597 356.795 401.392C356.385 401.187 355.937 401.084 355.451 401.084C354.723 401.084 354.103 401.317 353.589 401.784C353.076 402.251 352.791 402.909 352.735 403.758H358.111ZM366.014 401.182V405.928C366.014 406.395 366.103 406.717 366.28 406.894C366.457 407.071 366.77 407.16 367.218 407.16H368.114V408H367.064C366.373 408 365.86 407.841 365.524 407.524C365.188 407.197 365.02 406.665 365.02 405.928V401.182H363.956V400.356H365.02V398.438H366.014V400.356H368.114V401.182H366.014ZM369.282 404.164C369.282 403.38 369.436 402.694 369.744 402.106C370.062 401.509 370.496 401.051 371.046 400.734C371.606 400.407 372.236 400.244 372.936 400.244C373.664 400.244 374.29 400.412 374.812 400.748C375.344 401.084 375.727 401.513 375.96 402.036V400.356H376.94V408H375.96V406.306C375.718 406.829 375.33 407.263 374.798 407.608C374.276 407.944 373.65 408.112 372.922 408.112C372.232 408.112 371.606 407.949 371.046 407.622C370.496 407.295 370.062 406.833 369.744 406.236C369.436 405.639 369.282 404.948 369.282 404.164ZM375.96 404.178C375.96 403.562 375.834 403.021 375.582 402.554C375.33 402.087 374.985 401.728 374.546 401.476C374.117 401.224 373.641 401.098 373.118 401.098C372.577 401.098 372.092 401.219 371.662 401.462C371.233 401.705 370.892 402.059 370.64 402.526C370.398 402.983 370.276 403.529 370.276 404.164C370.276 404.789 370.398 405.34 370.64 405.816C370.892 406.283 371.233 406.642 371.662 406.894C372.092 407.137 372.577 407.258 373.118 407.258C373.641 407.258 374.117 407.132 374.546 406.88C374.985 406.628 375.33 406.269 375.582 405.802C375.834 405.335 375.96 404.794 375.96 404.178ZM380.158 401.714C380.372 401.238 380.699 400.869 381.138 400.608C381.586 400.347 382.132 400.216 382.776 400.216V401.238H382.51C381.8 401.238 381.231 401.429 380.802 401.812C380.372 402.195 380.158 402.834 380.158 403.73V408H379.178V400.356H380.158V401.714ZM387.456 400.244C388.175 400.244 388.8 400.412 389.332 400.748C389.864 401.084 390.247 401.509 390.48 402.022V400.356H391.46V408.196C391.46 408.896 391.306 409.517 390.998 410.058C390.699 410.599 390.279 411.015 389.738 411.304C389.197 411.603 388.581 411.752 387.89 411.752C386.91 411.752 386.093 411.519 385.44 411.052C384.796 410.585 384.395 409.951 384.236 409.148H385.202C385.37 409.68 385.687 410.105 386.154 410.422C386.63 410.739 387.209 410.898 387.89 410.898C388.385 410.898 388.828 410.791 389.22 410.576C389.612 410.371 389.92 410.063 390.144 409.652C390.368 409.241 390.48 408.756 390.48 408.196V406.306C390.237 406.829 389.85 407.263 389.318 407.608C388.795 407.944 388.175 408.112 387.456 408.112C386.756 408.112 386.126 407.949 385.566 407.622C385.015 407.295 384.581 406.833 384.264 406.236C383.956 405.639 383.802 404.948 383.802 404.164C383.802 403.38 383.956 402.694 384.264 402.106C384.581 401.509 385.015 401.051 385.566 400.734C386.126 400.407 386.756 400.244 387.456 400.244ZM390.48 404.178C390.48 403.562 390.354 403.021 390.102 402.554C389.85 402.087 389.505 401.728 389.066 401.476C388.637 401.224 388.161 401.098 387.638 401.098C387.097 401.098 386.611 401.219 386.182 401.462C385.753 401.705 385.412 402.059 385.16 402.526C384.917 402.983 384.796 403.529 384.796 404.164C384.796 404.789 384.917 405.34 385.16 405.816C385.412 406.283 385.753 406.642 386.182 406.894C386.611 407.137 387.097 407.258 387.638 407.258C388.161 407.258 388.637 407.132 389.066 406.88C389.505 406.628 389.85 406.269 390.102 405.802C390.354 405.335 390.48 404.794 390.48 404.178ZM400.613 403.786C400.613 404.122 400.604 404.379 400.585 404.556H394.243C394.271 405.135 394.411 405.629 394.663 406.04C394.915 406.451 395.246 406.763 395.657 406.978C396.068 407.183 396.516 407.286 397.001 407.286C397.636 407.286 398.168 407.132 398.597 406.824C399.036 406.516 399.325 406.101 399.465 405.578H400.501C400.314 406.325 399.913 406.936 399.297 407.412C398.69 407.879 397.925 408.112 397.001 408.112C396.282 408.112 395.638 407.953 395.069 407.636C394.5 407.309 394.052 406.852 393.725 406.264C393.408 405.667 393.249 404.971 393.249 404.178C393.249 403.385 393.408 402.689 393.725 402.092C394.042 401.495 394.486 401.037 395.055 400.72C395.624 400.403 396.273 400.244 397.001 400.244C397.729 400.244 398.364 400.403 398.905 400.72C399.456 401.037 399.876 401.467 400.165 402.008C400.464 402.54 400.613 403.133 400.613 403.786ZM399.619 403.758C399.628 403.189 399.512 402.703 399.269 402.302C399.036 401.901 398.714 401.597 398.303 401.392C397.892 401.187 397.444 401.084 396.959 401.084C396.231 401.084 395.61 401.317 395.097 401.784C394.584 402.251 394.299 402.909 394.243 403.758H399.619ZM403.68 401.182V405.928C403.68 406.395 403.769 406.717 403.946 406.894C404.123 407.071 404.436 407.16 404.884 407.16H405.78V408H404.73C404.039 408 403.526 407.841 403.19 407.524C402.854 407.197 402.686 406.665 402.686 405.928V401.182H401.622V400.356H402.686V398.438H403.68V400.356H405.78V401.182H403.68ZM407.886 398.914C407.69 398.914 407.522 398.844 407.382 398.704C407.242 398.564 407.172 398.391 407.172 398.186C407.172 397.981 407.242 397.813 407.382 397.682C407.522 397.542 407.69 397.472 407.886 397.472C408.082 397.472 408.25 397.542 408.39 397.682C408.53 397.813 408.6 397.981 408.6 398.186C408.6 398.391 408.53 398.564 408.39 398.704C408.25 398.844 408.082 398.914 407.886 398.914ZM408.376 400.356V408H407.396V400.356H408.376ZM414.18 400.216C415.094 400.216 415.841 400.501 416.42 401.07C416.998 401.63 417.288 402.447 417.288 403.52V408H416.322V403.632C416.322 402.801 416.112 402.167 415.692 401.728C415.281 401.289 414.716 401.07 413.998 401.07C413.26 401.07 412.672 401.303 412.234 401.77C411.795 402.237 411.576 402.923 411.576 403.828V408H410.596V400.356H411.576V401.658C411.818 401.191 412.168 400.837 412.626 400.594C413.083 400.342 413.601 400.216 414.18 400.216ZM422.661 400.244C423.38 400.244 424.005 400.412 424.537 400.748C425.069 401.084 425.452 401.509 425.685 402.022V400.356H426.665V408.196C426.665 408.896 426.511 409.517 426.203 410.058C425.904 410.599 425.484 411.015 424.943 411.304C424.402 411.603 423.786 411.752 423.095 411.752C422.115 411.752 421.298 411.519 420.645 411.052C420.001 410.585 419.6 409.951 419.441 409.148H420.407C420.575 409.68 420.892 410.105 421.359 410.422C421.835 410.739 422.414 410.898 423.095 410.898C423.59 410.898 424.033 410.791 424.425 410.576C424.817 410.371 425.125 410.063 425.349 409.652C425.573 409.241 425.685 408.756 425.685 408.196V406.306C425.442 406.829 425.055 407.263 424.523 407.608C424 407.944 423.38 408.112 422.661 408.112C421.961 408.112 421.331 407.949 420.771 407.622C420.22 407.295 419.786 406.833 419.469 406.236C419.161 405.639 419.007 404.948 419.007 404.164C419.007 403.38 419.161 402.694 419.469 402.106C419.786 401.509 420.22 401.051 420.771 400.734C421.331 400.407 421.961 400.244 422.661 400.244ZM425.685 404.178C425.685 403.562 425.559 403.021 425.307 402.554C425.055 402.087 424.71 401.728 424.271 401.476C423.842 401.224 423.366 401.098 422.843 401.098C422.302 401.098 421.816 401.219 421.387 401.462C420.958 401.705 420.617 402.059 420.365 402.526C420.122 402.983 420.001 403.529 420.001 404.164C420.001 404.789 420.122 405.34 420.365 405.816C420.617 406.283 420.958 406.642 421.387 406.894C421.816 407.137 422.302 407.258 422.843 407.258C423.366 407.258 423.842 407.132 424.271 406.88C424.71 406.628 425.055 406.269 425.307 405.802C425.559 405.335 425.685 404.794 425.685 404.178ZM214.42 416.182H212.642V423H211.662V416.182H210.598V415.356H211.662V414.824C211.662 413.993 211.872 413.382 212.292 412.99C212.721 412.598 213.412 412.402 214.364 412.402V413.242C213.729 413.242 213.281 413.363 213.02 413.606C212.768 413.849 212.642 414.255 212.642 414.824V415.356H214.42V416.182ZM219.309 423.112C218.59 423.112 217.941 422.953 217.363 422.636C216.793 422.309 216.341 421.852 216.005 421.264C215.678 420.667 215.515 419.971 215.515 419.178C215.515 418.385 215.683 417.694 216.019 417.106C216.355 416.509 216.812 416.051 217.391 415.734C217.969 415.407 218.618 415.244 219.337 415.244C220.055 415.244 220.704 415.407 221.283 415.734C221.871 416.051 222.328 416.509 222.655 417.106C222.991 417.694 223.159 418.385 223.159 419.178C223.159 419.962 222.991 420.653 222.655 421.25C222.319 421.847 221.857 422.309 221.269 422.636C220.681 422.953 220.027 423.112 219.309 423.112ZM219.309 422.258C219.813 422.258 220.279 422.146 220.709 421.922C221.138 421.689 221.483 421.343 221.745 420.886C222.015 420.419 222.151 419.85 222.151 419.178C222.151 418.506 222.02 417.941 221.759 417.484C221.497 417.017 221.152 416.672 220.723 416.448C220.293 416.215 219.827 416.098 219.323 416.098C218.819 416.098 218.352 416.215 217.923 416.448C217.493 416.672 217.148 417.017 216.887 417.484C216.635 417.941 216.509 418.506 216.509 419.178C216.509 419.85 216.635 420.419 216.887 420.886C217.148 421.343 217.489 421.689 217.909 421.922C218.338 422.146 218.805 422.258 219.309 422.258ZM225.925 416.714C226.14 416.238 226.467 415.869 226.905 415.608C227.353 415.347 227.899 415.216 228.543 415.216V416.238H228.277C227.568 416.238 226.999 416.429 226.569 416.812C226.14 417.195 225.925 417.834 225.925 418.73V423H224.945V415.356H225.925V416.714ZM242.959 415.216C243.855 415.216 244.583 415.501 245.143 416.07C245.713 416.63 245.997 417.447 245.997 418.52V423H245.031V418.632C245.031 417.801 244.831 417.167 244.429 416.728C244.028 416.289 243.482 416.07 242.791 416.07C242.073 416.07 241.499 416.308 241.069 416.784C240.64 417.26 240.425 417.951 240.425 418.856V423H239.459V418.632C239.459 417.801 239.259 417.167 238.857 416.728C238.456 416.289 237.905 416.07 237.205 416.07C236.487 416.07 235.913 416.308 235.483 416.784C235.054 417.26 234.839 417.951 234.839 418.856V423H233.859V415.356H234.839V416.672C235.082 416.196 235.427 415.837 235.875 415.594C236.323 415.342 236.823 415.216 237.373 415.216C238.036 415.216 238.615 415.375 239.109 415.692C239.613 416.009 239.977 416.476 240.201 417.092C240.407 416.485 240.757 416.023 241.251 415.706C241.755 415.379 242.325 415.216 242.959 415.216ZM247.726 419.164C247.726 418.38 247.88 417.694 248.188 417.106C248.505 416.509 248.939 416.051 249.49 415.734C250.05 415.407 250.68 415.244 251.38 415.244C252.108 415.244 252.733 415.412 253.256 415.748C253.788 416.084 254.17 416.513 254.404 417.036V415.356H255.384V423H254.404V421.306C254.161 421.829 253.774 422.263 253.242 422.608C252.719 422.944 252.094 423.112 251.366 423.112C250.675 423.112 250.05 422.949 249.49 422.622C248.939 422.295 248.505 421.833 248.188 421.236C247.88 420.639 247.726 419.948 247.726 419.164ZM254.404 419.178C254.404 418.562 254.278 418.021 254.026 417.554C253.774 417.087 253.428 416.728 252.99 416.476C252.56 416.224 252.084 416.098 251.562 416.098C251.02 416.098 250.535 416.219 250.106 416.462C249.676 416.705 249.336 417.059 249.084 417.526C248.841 417.983 248.72 418.529 248.72 419.164C248.72 419.789 248.841 420.34 249.084 420.816C249.336 421.283 249.676 421.642 250.106 421.894C250.535 422.137 251.02 422.258 251.562 422.258C252.084 422.258 252.56 422.132 252.99 421.88C253.428 421.628 253.774 421.269 254.026 420.802C254.278 420.335 254.404 419.794 254.404 419.178ZM261.625 423L259.651 419.92L257.747 423H256.711L259.175 419.178L256.739 415.356H257.845L259.791 418.394L261.681 415.356H262.703L260.267 419.136L262.731 423H261.625ZM264.55 413.914C264.354 413.914 264.186 413.844 264.046 413.704C263.906 413.564 263.836 413.391 263.836 413.186C263.836 412.981 263.906 412.813 264.046 412.682C264.186 412.542 264.354 412.472 264.55 412.472C264.746 412.472 264.914 412.542 265.054 412.682C265.194 412.813 265.264 412.981 265.264 413.186C265.264 413.391 265.194 413.564 265.054 413.704C264.914 413.844 264.746 413.914 264.55 413.914ZM265.04 415.356V423H264.06V415.356H265.04ZM276.36 415.216C277.256 415.216 277.984 415.501 278.544 416.07C279.113 416.63 279.398 417.447 279.398 418.52V423H278.432V418.632C278.432 417.801 278.231 417.167 277.83 416.728C277.428 416.289 276.882 416.07 276.192 416.07C275.473 416.07 274.899 416.308 274.47 416.784C274.04 417.26 273.826 417.951 273.826 418.856V423H272.86V418.632C272.86 417.801 272.659 417.167 272.258 416.728C271.856 416.289 271.306 416.07 270.606 416.07C269.887 416.07 269.313 416.308 268.884 416.784C268.454 417.26 268.24 417.951 268.24 418.856V423H267.26V415.356H268.24V416.672C268.482 416.196 268.828 415.837 269.276 415.594C269.724 415.342 270.223 415.216 270.774 415.216C271.436 415.216 272.015 415.375 272.51 415.692C273.014 416.009 273.378 416.476 273.602 417.092C273.807 416.485 274.157 416.023 274.652 415.706C275.156 415.379 275.725 415.216 276.36 415.216ZM288.196 415.356V423H287.216V421.656C286.992 422.132 286.647 422.496 286.18 422.748C285.713 423 285.191 423.126 284.612 423.126C283.697 423.126 282.951 422.846 282.372 422.286C281.793 421.717 281.504 420.895 281.504 419.822V415.356H282.47V419.71C282.47 420.541 282.675 421.175 283.086 421.614C283.506 422.053 284.075 422.272 284.794 422.272C285.531 422.272 286.119 422.039 286.558 421.572C286.997 421.105 287.216 420.419 287.216 419.514V415.356H288.196ZM299.533 415.216C300.429 415.216 301.157 415.501 301.717 416.07C302.287 416.63 302.571 417.447 302.571 418.52V423H301.605V418.632C301.605 417.801 301.405 417.167 301.003 416.728C300.602 416.289 300.056 416.07 299.365 416.07C298.647 416.07 298.073 416.308 297.643 416.784C297.214 417.26 296.999 417.951 296.999 418.856V423H296.033V418.632C296.033 417.801 295.833 417.167 295.431 416.728C295.03 416.289 294.479 416.07 293.779 416.07C293.061 416.07 292.487 416.308 292.057 416.784C291.628 417.26 291.413 417.951 291.413 418.856V423H290.433V415.356H291.413V416.672C291.656 416.196 292.001 415.837 292.449 415.594C292.897 415.342 293.397 415.216 293.947 415.216C294.61 415.216 295.189 415.375 295.683 415.692C296.187 416.009 296.551 416.476 296.775 417.092C296.981 416.485 297.331 416.023 297.825 415.706C298.329 415.379 298.899 415.216 299.533 415.216ZM308.142 419.178C308.142 418.385 308.3 417.694 308.618 417.106C308.935 416.509 309.374 416.051 309.934 415.734C310.494 415.407 311.133 415.244 311.852 415.244C312.794 415.244 313.569 415.477 314.176 415.944C314.792 416.411 315.188 417.045 315.366 417.848H314.316C314.185 417.297 313.9 416.868 313.462 416.56C313.032 416.243 312.496 416.084 311.852 416.084C311.338 416.084 310.876 416.201 310.466 416.434C310.055 416.667 309.728 417.017 309.486 417.484C309.252 417.941 309.136 418.506 309.136 419.178C309.136 419.85 309.252 420.419 309.486 420.886C309.728 421.353 310.055 421.703 310.466 421.936C310.876 422.169 311.338 422.286 311.852 422.286C312.496 422.286 313.032 422.132 313.462 421.824C313.9 421.507 314.185 421.068 314.316 420.508H315.366C315.188 421.292 314.792 421.922 314.176 422.398C313.56 422.874 312.785 423.112 311.852 423.112C311.133 423.112 310.494 422.953 309.934 422.636C309.374 422.309 308.935 421.852 308.618 421.264C308.3 420.667 308.142 419.971 308.142 419.178ZM320.522 423.112C319.803 423.112 319.154 422.953 318.576 422.636C318.006 422.309 317.554 421.852 317.218 421.264C316.891 420.667 316.728 419.971 316.728 419.178C316.728 418.385 316.896 417.694 317.232 417.106C317.568 416.509 318.025 416.051 318.604 415.734C319.182 415.407 319.831 415.244 320.55 415.244C321.268 415.244 321.917 415.407 322.496 415.734C323.084 416.051 323.541 416.509 323.868 417.106C324.204 417.694 324.372 418.385 324.372 419.178C324.372 419.962 324.204 420.653 323.868 421.25C323.532 421.847 323.07 422.309 322.482 422.636C321.894 422.953 321.24 423.112 320.522 423.112ZM320.522 422.258C321.026 422.258 321.492 422.146 321.922 421.922C322.351 421.689 322.696 421.343 322.958 420.886C323.228 420.419 323.364 419.85 323.364 419.178C323.364 418.506 323.233 417.941 322.972 417.484C322.71 417.017 322.365 416.672 321.936 416.448C321.506 416.215 321.04 416.098 320.536 416.098C320.032 416.098 319.565 416.215 319.136 416.448C318.706 416.672 318.361 417.017 318.1 417.484C317.848 417.941 317.722 418.506 317.722 419.178C317.722 419.85 317.848 420.419 318.1 420.886C318.361 421.343 318.702 421.689 319.122 421.922C319.551 422.146 320.018 422.258 320.522 422.258ZM329.742 415.216C330.657 415.216 331.403 415.501 331.982 416.07C332.561 416.63 332.85 417.447 332.85 418.52V423H331.884V418.632C331.884 417.801 331.674 417.167 331.254 416.728C330.843 416.289 330.279 416.07 329.56 416.07C328.823 416.07 328.235 416.303 327.796 416.77C327.357 417.237 327.138 417.923 327.138 418.828V423H326.158V415.356H327.138V416.658C327.381 416.191 327.731 415.837 328.188 415.594C328.645 415.342 329.163 415.216 329.742 415.216ZM337.733 422.048L340.309 415.356H341.345L338.279 423H337.173L334.107 415.356H335.157L337.733 422.048ZM349.59 418.786C349.59 419.122 349.58 419.379 349.562 419.556H343.22C343.248 420.135 343.388 420.629 343.64 421.04C343.892 421.451 344.223 421.763 344.634 421.978C345.044 422.183 345.492 422.286 345.978 422.286C346.612 422.286 347.144 422.132 347.574 421.824C348.012 421.516 348.302 421.101 348.442 420.578H349.478C349.291 421.325 348.89 421.936 348.274 422.412C347.667 422.879 346.902 423.112 345.978 423.112C345.259 423.112 344.615 422.953 344.046 422.636C343.476 422.309 343.028 421.852 342.702 421.264C342.384 420.667 342.226 419.971 342.226 419.178C342.226 418.385 342.384 417.689 342.702 417.092C343.019 416.495 343.462 416.037 344.032 415.72C344.601 415.403 345.25 415.244 345.978 415.244C346.706 415.244 347.34 415.403 347.882 415.72C348.432 416.037 348.852 416.467 349.142 417.008C349.44 417.54 349.59 418.133 349.59 418.786ZM348.596 418.758C348.605 418.189 348.488 417.703 348.246 417.302C348.012 416.901 347.69 416.597 347.28 416.392C346.869 416.187 346.421 416.084 345.936 416.084C345.208 416.084 344.587 416.317 344.074 416.784C343.56 417.251 343.276 417.909 343.22 418.758H348.596ZM352.363 416.714C352.577 416.238 352.904 415.869 353.343 415.608C353.791 415.347 354.337 415.216 354.981 415.216V416.238H354.715C354.005 416.238 353.436 416.429 353.007 416.812C352.577 417.195 352.363 417.834 352.363 418.73V423H351.383V415.356H352.363V416.714ZM359.087 423.112C358.21 423.112 357.491 422.911 356.931 422.51C356.38 422.099 356.072 421.544 356.007 420.844H357.015C357.062 421.273 357.262 421.623 357.617 421.894C357.981 422.155 358.466 422.286 359.073 422.286C359.605 422.286 360.02 422.16 360.319 421.908C360.627 421.656 360.781 421.343 360.781 420.97C360.781 420.709 360.697 420.494 360.529 420.326C360.361 420.158 360.146 420.027 359.885 419.934C359.633 419.831 359.288 419.724 358.849 419.612C358.28 419.463 357.818 419.313 357.463 419.164C357.108 419.015 356.805 418.795 356.553 418.506C356.31 418.207 356.189 417.811 356.189 417.316C356.189 416.943 356.301 416.597 356.525 416.28C356.749 415.963 357.066 415.711 357.477 415.524C357.888 415.337 358.354 415.244 358.877 415.244C359.698 415.244 360.361 415.454 360.865 415.874C361.369 416.285 361.64 416.854 361.677 417.582H360.697C360.669 417.134 360.492 416.775 360.165 416.504C359.848 416.224 359.409 416.084 358.849 416.084C358.354 416.084 357.953 416.201 357.645 416.434C357.337 416.667 357.183 416.957 357.183 417.302C357.183 417.601 357.272 417.848 357.449 418.044C357.636 418.231 357.864 418.38 358.135 418.492C358.406 418.595 358.77 418.711 359.227 418.842C359.778 418.991 360.216 419.136 360.543 419.276C360.87 419.416 361.15 419.621 361.383 419.892C361.616 420.163 361.738 420.522 361.747 420.97C361.747 421.381 361.635 421.749 361.411 422.076C361.187 422.393 360.874 422.645 360.473 422.832C360.072 423.019 359.61 423.112 359.087 423.112ZM364.082 413.914C363.886 413.914 363.718 413.844 363.578 413.704C363.438 413.564 363.368 413.391 363.368 413.186C363.368 412.981 363.438 412.813 363.578 412.682C363.718 412.542 363.886 412.472 364.082 412.472C364.278 412.472 364.446 412.542 364.586 412.682C364.726 412.813 364.796 412.981 364.796 413.186C364.796 413.391 364.726 413.564 364.586 413.704C364.446 413.844 364.278 413.914 364.082 413.914ZM364.572 415.356V423H363.592V415.356H364.572ZM370.137 423.112C369.418 423.112 368.77 422.953 368.191 422.636C367.622 422.309 367.169 421.852 366.833 421.264C366.506 420.667 366.343 419.971 366.343 419.178C366.343 418.385 366.511 417.694 366.847 417.106C367.183 416.509 367.64 416.051 368.219 415.734C368.798 415.407 369.446 415.244 370.165 415.244C370.884 415.244 371.532 415.407 372.111 415.734C372.699 416.051 373.156 416.509 373.483 417.106C373.819 417.694 373.987 418.385 373.987 419.178C373.987 419.962 373.819 420.653 373.483 421.25C373.147 421.847 372.685 422.309 372.097 422.636C371.509 422.953 370.856 423.112 370.137 423.112ZM370.137 422.258C370.641 422.258 371.108 422.146 371.537 421.922C371.966 421.689 372.312 421.343 372.573 420.886C372.844 420.419 372.979 419.85 372.979 419.178C372.979 418.506 372.848 417.941 372.587 417.484C372.326 417.017 371.98 416.672 371.551 416.448C371.122 416.215 370.655 416.098 370.151 416.098C369.647 416.098 369.18 416.215 368.751 416.448C368.322 416.672 367.976 417.017 367.715 417.484C367.463 417.941 367.337 418.506 367.337 419.178C367.337 419.85 367.463 420.419 367.715 420.886C367.976 421.343 368.317 421.689 368.737 421.922C369.166 422.146 369.633 422.258 370.137 422.258ZM379.357 415.216C380.272 415.216 381.019 415.501 381.597 416.07C382.176 416.63 382.465 417.447 382.465 418.52V423H381.499V418.632C381.499 417.801 381.289 417.167 380.869 416.728C380.459 416.289 379.894 416.07 379.175 416.07C378.438 416.07 377.85 416.303 377.411 416.77C376.973 417.237 376.753 417.923 376.753 418.828V423H375.773V415.356H376.753V416.658C376.996 416.191 377.346 415.837 377.803 415.594C378.261 415.342 378.779 415.216 379.357 415.216ZM389.454 416.714C389.669 416.238 389.996 415.869 390.434 415.608C390.882 415.347 391.428 415.216 392.072 415.216V416.238H391.806C391.097 416.238 390.528 416.429 390.098 416.812C389.669 417.195 389.454 417.834 389.454 418.73V423H388.474V415.356H389.454V416.714ZM393.099 419.164C393.099 418.38 393.253 417.694 393.561 417.106C393.878 416.509 394.312 416.051 394.863 415.734C395.423 415.407 396.053 415.244 396.753 415.244C397.481 415.244 398.106 415.412 398.629 415.748C399.161 416.084 399.543 416.513 399.777 417.036V415.356H400.757V423H399.777V421.306C399.534 421.829 399.147 422.263 398.615 422.608C398.092 422.944 397.467 423.112 396.739 423.112C396.048 423.112 395.423 422.949 394.863 422.622C394.312 422.295 393.878 421.833 393.561 421.236C393.253 420.639 393.099 419.948 393.099 419.164ZM399.777 419.178C399.777 418.562 399.651 418.021 399.399 417.554C399.147 417.087 398.801 416.728 398.363 416.476C397.933 416.224 397.457 416.098 396.935 416.098C396.393 416.098 395.908 416.219 395.479 416.462C395.049 416.705 394.709 417.059 394.457 417.526C394.214 417.983 394.093 418.529 394.093 419.164C394.093 419.789 394.214 420.34 394.457 420.816C394.709 421.283 395.049 421.642 395.479 421.894C395.908 422.137 396.393 422.258 396.935 422.258C397.457 422.258 397.933 422.132 398.363 421.88C398.801 421.628 399.147 421.269 399.399 420.802C399.651 420.335 399.777 419.794 399.777 419.178ZM404.268 416.182V420.928C404.268 421.395 404.357 421.717 404.534 421.894C404.711 422.071 405.024 422.16 405.472 422.16H406.368V423H405.318C404.627 423 404.114 422.841 403.778 422.524C403.442 422.197 403.274 421.665 403.274 420.928V416.182H402.21V415.356H403.274V413.438H404.268V415.356H406.368V416.182H404.268ZM414.9 418.786C414.9 419.122 414.891 419.379 414.872 419.556H408.53C408.558 420.135 408.698 420.629 408.95 421.04C409.202 421.451 409.534 421.763 409.944 421.978C410.355 422.183 410.803 422.286 411.288 422.286C411.923 422.286 412.455 422.132 412.884 421.824C413.323 421.516 413.612 421.101 413.752 420.578H414.788C414.602 421.325 414.2 421.936 413.584 422.412C412.978 422.879 412.212 423.112 411.288 423.112C410.57 423.112 409.926 422.953 409.356 422.636C408.787 422.309 408.339 421.852 408.012 421.264C407.695 420.667 407.536 419.971 407.536 419.178C407.536 418.385 407.695 417.689 408.012 417.092C408.33 416.495 408.773 416.037 409.342 415.72C409.912 415.403 410.56 415.244 411.288 415.244C412.016 415.244 412.651 415.403 413.192 415.72C413.743 416.037 414.163 416.467 414.452 417.008C414.751 417.54 414.9 418.133 414.9 418.786ZM413.906 418.758C413.916 418.189 413.799 417.703 413.556 417.302C413.323 416.901 413.001 416.597 412.59 416.392C412.18 416.187 411.732 416.084 411.246 416.084C410.518 416.084 409.898 416.317 409.384 416.784C408.871 417.251 408.586 417.909 408.53 418.758H413.906ZM419.325 423.112C418.448 423.112 417.729 422.911 417.169 422.51C416.619 422.099 416.311 421.544 416.245 420.844H417.253C417.3 421.273 417.501 421.623 417.855 421.894C418.219 422.155 418.705 422.286 419.311 422.286C419.843 422.286 420.259 422.16 420.557 421.908C420.865 421.656 421.019 421.343 421.019 420.97C421.019 420.709 420.935 420.494 420.767 420.326C420.599 420.158 420.385 420.027 420.123 419.934C419.871 419.831 419.526 419.724 419.087 419.612C418.518 419.463 418.056 419.313 417.701 419.164C417.347 419.015 417.043 418.795 416.791 418.506C416.549 418.207 416.427 417.811 416.427 417.316C416.427 416.943 416.539 416.597 416.763 416.28C416.987 415.963 417.305 415.711 417.715 415.524C418.126 415.337 418.593 415.244 419.115 415.244C419.937 415.244 420.599 415.454 421.103 415.874C421.607 416.285 421.878 416.854 421.915 417.582H420.935C420.907 417.134 420.73 416.775 420.403 416.504C420.086 416.224 419.647 416.084 419.087 416.084C418.593 416.084 418.191 416.201 417.883 416.434C417.575 416.667 417.421 416.957 417.421 417.302C417.421 417.601 417.51 417.848 417.687 418.044C417.874 418.231 418.103 418.38 418.373 418.492C418.644 418.595 419.008 418.711 419.465 418.842C420.016 418.991 420.455 419.136 420.781 419.276C421.108 419.416 421.388 419.621 421.621 419.892C421.855 420.163 421.976 420.522 421.985 420.97C421.985 421.381 421.873 421.749 421.649 422.076C421.425 422.393 421.113 422.645 420.711 422.832C420.31 423.019 419.848 423.112 419.325 423.112Z" fill="white"/>
<path d="M315.833 286.333C311.657 286.333 308.083 284.913 305.112 282.071C302.142 279.229 300.549 275.742 300.333 271.608L305.758 273.223C306.318 275.548 307.524 277.454 309.375 278.94C311.226 280.426 313.379 281.168 315.833 281.167C318.675 281.167 321.108 280.155 323.131 278.131C325.155 276.108 326.167 273.675 326.167 270.833C326.167 268.379 325.424 266.226 323.94 264.375C322.455 262.524 320.55 261.318 318.223 260.758L316.608 255.333C320.742 255.549 324.229 257.142 327.071 260.113C329.912 263.083 331.333 266.657 331.333 270.833C331.333 275.139 329.826 278.799 326.812 281.813C323.799 284.826 320.139 286.333 315.833 286.333ZM315.833 296.667C312.26 296.667 308.901 295.988 305.758 294.631C302.615 293.274 299.881 291.434 297.556 289.11C295.231 286.787 293.391 284.053 292.036 280.908C290.68 277.764 290.002 274.405 290 270.833V269.671C290 269.283 290.043 268.896 290.129 268.508L295.167 270.058V270.833C295.167 276.603 297.169 281.49 301.173 285.494C305.177 289.498 310.064 291.5 315.833 291.5C321.603 291.5 326.49 289.498 330.494 285.494C334.498 281.49 336.5 276.603 336.5 270.833C336.5 265.064 334.498 260.177 330.494 256.173C326.49 252.169 321.603 250.167 315.833 250.167H315.058L313.508 245.129C313.896 245.043 314.283 245 314.671 245H315.833C319.407 245 322.765 245.679 325.908 247.036C329.051 248.393 331.785 250.233 334.11 252.556C336.435 254.88 338.276 257.614 339.634 260.758C340.991 263.903 341.668 267.261 341.667 270.833C341.665 274.405 340.986 277.764 339.631 280.908C338.276 284.053 336.435 286.787 334.11 289.11C331.785 291.434 329.051 293.275 325.908 294.634C322.765 295.992 319.407 296.67 315.833 296.667ZM312.023 272.125L300.979 261.081L297.75 270.833L290 245L315.833 252.75L306.081 255.979L317.125 267.023L312.023 272.125Z" fill="black"/>
<path d="M315.833 286.333C311.657 286.333 308.083 284.913 305.112 282.071C302.142 279.229 300.549 275.742 300.333 271.608L305.758 273.223C306.318 275.548 307.524 277.454 309.375 278.94C311.226 280.426 313.379 281.168 315.833 281.167C318.675 281.167 321.108 280.155 323.131 278.131C325.155 276.108 326.167 273.675 326.167 270.833C326.167 268.379 325.424 266.226 323.94 264.375C322.455 262.524 320.55 261.318 318.223 260.758L316.608 255.333C320.742 255.549 324.229 257.142 327.071 260.113C329.912 263.083 331.333 266.657 331.333 270.833C331.333 275.139 329.826 278.799 326.812 281.813C323.799 284.826 320.139 286.333 315.833 286.333ZM315.833 296.667C312.26 296.667 308.901 295.988 305.758 294.631C302.615 293.274 299.881 291.434 297.556 289.11C295.231 286.787 293.391 284.053 292.036 280.908C290.68 277.764 290.002 274.405 290 270.833V269.671C290 269.283 290.043 268.896 290.129 268.508L295.167 270.058V270.833C295.167 276.603 297.169 281.49 301.173 285.494C305.177 289.498 310.064 291.5 315.833 291.5C321.603 291.5 326.49 289.498 330.494 285.494C334.498 281.49 336.5 276.603 336.5 270.833C336.5 265.064 334.498 260.177 330.494 256.173C326.49 252.169 321.603 250.167 315.833 250.167H315.058L313.508 245.129C313.896 245.043 314.283 245 314.671 245H315.833C319.407 245 322.765 245.679 325.908 247.036C329.051 248.393 331.785 250.233 334.11 252.556C336.435 254.88 338.276 257.614 339.634 260.758C340.991 263.903 341.668 267.261 341.667 270.833C341.665 274.405 340.986 277.764 339.631 280.908C338.276 284.053 336.435 286.787 334.11 289.11C331.785 291.434 329.051 293.275 325.908 294.634C322.765 295.992 319.407 296.67 315.833 296.667ZM312.023 272.125L300.979 261.081L297.75 270.833L290 245L315.833 252.75L306.081 255.979L317.125 267.023L312.023 272.125Z" fill="url(#paint0_radial_97_16483)"/>
<rect x="297" y="171" width="32" height="3" fill="#D9D9D9"/>
<defs>
<filter id="filter0_f_97_16483" x="138.519" y="120.8" width="334.869" height="322.4" filterUnits="userSpaceOnUse" color-interpolation-filters="sRGB">
<feFlood flood-opacity="0" result="BackgroundImageFix"/>
<feBlend mode="normal" in="SourceGraphic" in2="BackgroundImageFix" result="shape"/>
<feGaussianBlur stdDeviation="23.6" result="effect1_foregroundBlur_97_16483"/>
</filter>
<filter id="filter1_f_97_16483" x="0.300003" y="0.300003" width="632.4" height="548.034" filterUnits="userSpaceOnUse" color-interpolation-filters="sRGB">
<feFlood flood-opacity="0" result="BackgroundImageFix"/>
<feBlend mode="normal" in="SourceGraphic" in2="BackgroundImageFix" result="shape"/>
<feGaussianBlur stdDeviation="83.85" result="effect1_foregroundBlur_97_16483"/>
</filter>
<radialGradient id="paint0_radial_97_16483" cx="0" cy="0" r="1" gradientUnits="userSpaceOnUse" gradientTransform="translate(315.833 270.833) rotate(89.7337) scale(28.1488 28.1484)">
<stop stop-color="#C7D7FF"/>
<stop offset="1" stop-color="#788199"/>
</radialGradient>
</defs>
</svg>
