<svg width="304" height="304" viewBox="0 0 304 304" fill="none" xmlns="http://www.w3.org/2000/svg">
<circle opacity="0.28" cx="151.999" cy="152" r="102.745" stroke="url(#paint0_linear_58_13995)"/>
<g style="mix-blend-mode:lighten">
<path d="M116.973 45.1702C117.399 43.7207 118.283 42.4483 119.493 41.5435C120.703 40.6386 122.173 40.1501 123.684 40.1509H179.608C180.715 40.1518 181.806 40.4155 182.792 40.9205C183.777 41.4255 184.628 42.1572 185.275 43.0555C185.922 43.9538 186.347 44.9929 186.514 46.0873C186.681 47.1818 186.585 48.3002 186.235 49.3505L161.349 124.038H214.561C215.87 124.037 217.153 124.404 218.264 125.096C219.375 125.789 220.269 126.779 220.845 127.955C221.42 129.131 221.654 130.445 221.52 131.747C221.385 133.049 220.888 134.287 220.084 135.321L122.216 261.151C121.213 262.446 119.788 263.348 118.188 263.7C116.588 264.051 114.916 263.83 113.462 263.074C112.009 262.318 110.868 261.076 110.237 259.565C109.606 258.053 109.526 256.368 110.01 254.803L135.19 172.972H88.731C87.6442 172.972 86.5722 172.72 85.6001 172.233C84.6281 171.747 83.7827 171.041 83.1313 170.171C82.4799 169.301 82.0402 168.291 81.8473 167.222C81.6544 166.152 81.7136 165.053 82.02 164.01L116.973 45.1702Z" fill="url(#paint1_radial_58_13995)"/>
</g>
<circle opacity="0.28" cx="152" cy="152" r="151.5" stroke="url(#paint2_linear_58_13995)"/>
<defs>
<linearGradient id="paint0_linear_58_13995" x1="151.999" y1="48.7547" x2="151.999" y2="255.245" gradientUnits="userSpaceOnUse">
<stop stop-color="#5C73AE"/>
<stop offset="1" stop-color="#263048"/>
</linearGradient>
<radialGradient id="paint1_radial_58_13995" cx="0" cy="0" r="1" gradientUnits="userSpaceOnUse" gradientTransform="translate(151.646 152.007) rotate(89.8336) scale(121.881 76.1758)">
<stop stop-color="#C7D7FF"/>
<stop offset="1" stop-color="#788199"/>
</radialGradient>
<linearGradient id="paint2_linear_58_13995" x1="152" y1="0" x2="152" y2="304" gradientUnits="userSpaceOnUse">
<stop stop-color="#788199"/>
<stop offset="1" stop-color="#282B33"/>
</linearGradient>
</defs>
</svg>
